<?xml version="1.0" encoding="UTF-8"?><svg id="Layer_2" xmlns="http://www.w3.org/2000/svg" viewBox="0 0 148.66 148"><defs><style>.cls-1{fill:#39b54a;}</style></defs><g id="Layer_1-2"><path class="cls-1" d="M148.41,73.17c-.47-4.25-2.35-7.68-4.4-10.52-4.07-5.65-8.99-8.93-13.8-11.87-4.89-2.84-9.92-4.81-14.97-6.52-5.06-1.83-10.2-2.94-15.38-3.86-.28-.06-.57-.08-.85-.13l-.13-1.19c-.47-3.63-1.18-7.4-2.09-11.35-.91-3.95-2.11-8.07-3.95-12.36l-1.61-3.24c-.63-1.09-1.36-2.2-2.12-3.28-1.55-2.23-3.7-4.42-6.7-6.31l-3.64-1.73c-.14-.06-.57-.15-.85-.22-1.26-.28-2.6-.47-3.93-.55-1.46-.13-2.26.13-3.4.27-4.44.65-7.68,2.75-10.37,4.94-5.25,4.27-8.06,9.17-10.7,13.92-2.5,4.82-4.31,9.76-5.82,14.7-1.09,3.39-1.89,6.83-2.57,10.29-.8.24-1.6.46-2.39.75-4.8,1.61-9.48,3.57-14.01,5.75-4.53,2.24-8.88,4.9-12.87,8.13-4.02,3.25-7.88,7.17-10.3,12.65l-.74,1.78s-.55,1.55-.33.94l-.34,2.28c-.04.22-.08.48-.1,1.03-.05.93-.05,1.87-.01,2.78.26,3.55,1.57,6.01,3.11,8.21,3.01,4.31,6.93,6.37,10.43,8.16,7.18,3.2,13.7,4.92,19.58,5.98,3.65.64,6.96,1.09,9.99,1.46.38,1.5.72,3.01,1.19,4.48,1.44,4.71,3.24,9.32,5.16,13.79,2.09,4.48,4.35,8.75,7.33,12.83,2.98,4.01,6.33,8.02,11.53,10.83l2.25,1.07c-.48-.18,1.09.44.96.37l2.68.47c.96.09,1.94.13,2.89.1,3.76-.18,6.11-1.74,8.3-3.3,4.01-3.32,5.87-7.11,7.37-10.64,2.99-7.07,4.3-13.57,5.21-19.38.55-3.63.95-6.92,1.27-9.92,3.39-.38,6.97-.86,10.75-1.37,3.69-.54,7.54-1.35,11.53-2.49,4.02-1.04,8.2-2.43,12.5-4.67,2.16-1.06,4.31-2.54,6.49-4.22,1.05-1,2.11-2.04,3.15-3.12.49-.63.96-1.32,1.43-2.01l1.21-1.85c.17-.46-.27.84.41-1.07l.72-1.59c.22-.53.46-.76.71-2.25.23-1.21.39-2.47.46-3.73.12-1.36-.12-2.12-.22-3.23ZM99.07,73.76c.1,4.09.14,7.32.06,9.53l-.06,3.38-.21,3.36c-.1,2.2-.41,5.41-.85,9.49-.08.61-.18,1.27-.27,1.92-2.79.53-5.5.97-8.05,1.28-5.75.77-10.82,1.09-14.98,1.28-4.16.11-7.43.16-9.68.07l-3.44-.06s-4.7-.31-5.45-.38c-.67-3.66-1.23-7.36-1.65-11.11-1-9.19-1.3-18.48-.89-27.88.11-3.07.34-6.13.61-9.18.37-.05.74-.12,1.11-.16,9.33-1.14,18.71-1.49,28.32-1.03,4.61.19,9.24.58,13.83,1.18,1.01,7.15,1.41,13.39,1.59,18.31ZM57.06,37.03c1-4.47,2.33-8.83,4.04-12.93,1.71-4.08,3.8-8.05,6.76-10.97,1.53-1.32,3.16-2.64,5.03-2.97.94-.36,1.78-.18,2.65-.21.85.1,2.2.59,2.82.86,3.44,1.79,6.08,5.05,8.1,8.4,3.93,6.64,6.21,13.78,7.94,20.4-.77-.09-1.54-.17-2.31-.27l-8.06-.64h-7.23c-2.67.06-5.41.09-8.01.32-2.57.26-5.14.41-7.69.78-1.59.28-3.18.53-4.76.81.24-1.19.44-2.39.71-3.56ZM33.85,99.92c-5.56-1.5-11.84-3.57-17.83-7.23-2.9-1.89-5.87-4.16-7.71-7.27-1.89-3.08-1.93-6.93.02-10.3,3.97-6.7,12.2-10.71,20.34-13.78,3.38-1.21,6.91-2.21,10.49-3.08-.16,1.93-.35,3.86-.45,5.78v7.34c.05,2.6.09,5.24.28,7.79.24,2.51.34,5.02.7,7.5.36,2.49.72,4.95,1.22,7.4.51,2.61,1.04,5.21,1.63,7.78-2.7-.48-5.6-1.07-8.7-1.93ZM95.42,114.07c-1.34,5.52-3.17,11.76-6.5,17.83-1.7,2.95-3.74,6.05-6.7,8.03-.78.36-1.52.88-2.34,1.14-.83.12-1.7.55-2.49.38l-1.22-.02c-.45-.1-.94-.29-1.41-.44-.39-.16-1.14-.3-1.24-.48l-1.18-.73c-3.13-2.08-5.53-5.48-7.54-9.07-2.06-3.61-3.51-7.67-4.94-11.78-1.38-4.39-2.5-8.95-3.4-13.62.59.04,1.15.06,1.64.08,2.26.08,4.67.22,6.91.3,2.24.15,5.55.08,9.78.16,4.22-.02,9.34-.14,15.27-.37,2.28-.08,4.69-.28,7.17-.53-.44,2.8-.99,5.84-1.8,9.11ZM138.27,78.13c.02.9-.51,2.05-.74,3.06-1.41,3.43-4.66,6.46-7.91,8.63-6.61,4.56-14.06,7.08-20.85,9.07-3.14.87-6.19,1.58-9.13,2.19.04-.44.09-.92.13-1.34.27-4.15.6-7.38.64-9.61.1-2.22.2-4.59.27-6.8.14-2.2.08-5.45.16-9.62,0-4.15-.1-9.19-.25-15.01-.03-.9-.09-1.85-.14-2.79,3.76.58,7.5,1.28,11.13,2.21,4.5,1.14,8.9,2.58,12.97,4.52,4.05,1.91,8.02,4.19,10.71,7.43,1.32,1.59,2.48,3.36,2.79,5.29.33.97.19,1.86.21,2.76Z"/></g></svg>