<?xml version="1.0" encoding="UTF-8"?><svg id="Layer_2" xmlns="http://www.w3.org/2000/svg" viewBox="0 0 148 148"><defs><style>.cls-1{fill:#39b54a;}</style></defs><g id="Layer_1-2"><path class="cls-1" d="M148,74c0-3.35-16.54-6.07-36.95-6.07-10.74,0-20.39.76-27.14,1.96,5.62-3.92,12.98-10.21,20.58-17.8,14.43-14.43,24.21-28.05,21.84-30.42s-15.99,7.41-30.42,21.84c-7.6,7.6-13.88,14.95-17.8,20.58,1.2-6.75,1.96-16.39,1.96-27.14,0-20.41-2.72-36.95-6.07-36.95s-6.07,16.54-6.07,36.95c0,10.74.76,20.39,1.96,27.14-3.92-5.62-10.21-12.98-17.8-20.58-14.43-14.43-28.05-24.21-30.42-21.84-2.37,2.37,7.41,15.99,21.84,30.42,7.6,7.6,14.95,13.88,20.58,17.8-6.75-1.2-16.39-1.96-27.14-1.96-20.41,0-36.95,2.72-36.95,6.07s16.54,6.07,36.95,6.07c10.74,0,20.39-.76,27.14-1.96-5.62,3.92-12.98,10.21-20.58,17.8-14.43,14.43-24.21,28.05-21.84,30.42,2.37,2.37,15.99-7.41,30.42-21.84,7.6-7.6,13.88-14.95,17.8-20.58-1.2,6.75-1.96,16.39-1.96,27.14,0,20.41,2.72,36.95,6.07,36.95s6.07-16.54,6.07-36.95c0-10.74-.76-20.39-1.96-27.14,3.92,5.62,10.21,12.98,17.8,20.58,14.43,14.43,28.05,24.21,30.42,21.84,2.37-2.37-7.41-15.99-21.84-30.42-7.6-7.6-14.95-13.88-20.58-17.8,6.75,1.2,16.39,1.96,27.14,1.96,20.41,0,36.95-2.72,36.95-6.07Z"/></g></svg>