<?xml version="1.0" encoding="UTF-8"?>
<svg id="Layer_2" xmlns="http://www.w3.org/2000/svg" version="1.1" viewBox="0 0 159.1 165.7">
  <!-- Generator: Adobe Illustrator 30.1.0, SVG Export Plug-In . SVG Version: 2.1.1 Build 136)  -->
  <defs>
    <style>
      .st0 {
        fill: #39b54a;
      }
    </style>
  </defs>
  <path class="st0" d="M106.4,104.2c17,2,33.9-4.3,47.1-14.6v-13.5c-11.2,10.5-26.5,17.5-42.2,15.9-5.1-.5-9.9-2-14.4-4.2,0,0,0,0,0,0,13.5-3.6,24.2-11.7,32.3-23.5.4-.9.7-1.8,1.3-2.5,1.3-1.3,2-3.1,2.9-4.7.2-.4.2-.9.4-1.3,2.9-5.2,4.3-10.8,5.8-16.4-3.1-3.1-5.8-7-9-10.1-2,15.7-9.6,30.3-23.5,39.7-.4.2-.7.2-1.1.4-3.7,2.5-7.5,4.1-11.5,5.2,1.6-2.8,2.9-5.6,3.9-8.8.9-3.4,1.8-6.5,2.2-9.9,2-17-4.3-33.9-14.6-47.1h-13.5c10.5,11.2,17.5,26.5,15.9,42.2-.5,5.1-2,9.9-4.2,14.4,0,0,0,0,0,0-3.6-13.5-11.7-24.2-23.5-32.3-.9-.4-1.8-.7-2.5-1.3-1.3-1.3-3.1-2-4.7-2.9-.4-.2-.9-.2-1.3-.4-5.2-2.9-10.8-4.3-16.4-5.8-3.1,3.1-7,5.8-10.1,9,15.7,2,30.3,9.6,39.7,23.5.2.4.2.7.4,1.1,2.5,3.7,4.1,7.5,5.2,11.5-2.8-1.6-5.6-2.9-8.8-3.9-3.4-.9-6.5-1.8-9.9-2.2-17-2-33.9,4.3-47.1,14.6v13.5c11.2-10.5,26.5-17.5,42.2-15.9,5.1.5,9.9,2,14.4,4.2,0,0,0,0,0,0-13.5,3.6-24.2,11.7-32.3,23.5-.4.9-.7,1.8-1.3,2.5-1.3,1.3-2,3.1-2.9,4.7-.2.4-.2.9-.4,1.3-2.9,5.2-4.3,10.8-5.8,16.4,3.1,3.1,5.8,7,9,10.1,2-15.7,9.6-30.3,23.5-39.7.4-.2.7-.2,1.1-.4,3.7-2.5,7.5-4.1,11.5-5.2-1.6,2.8-2.9,5.6-3.9,8.8-.9,3.4-1.8,6.5-2.2,9.9-2,17,4.3,33.9,14.6,47.1h13.5c-10.5-11.2-17.5-26.5-15.9-42.2.5-5.1,2-9.9,4.2-14.4,0,0,0,0,0,0,3.6,13.5,11.7,24.2,23.5,32.3.9.4,1.8.7,2.5,1.3,1.3,1.3,3.1,2,4.7,2.9.4.2.9.2,1.3.4,5.2,2.9,10.8,4.3,16.4,5.8,3.1-3.1,7-5.8,10.1-9-15.7-2-30.3-9.6-39.7-23.5-.2-.4-.2-.7-.4-1.1-2.5-3.7-4.1-7.5-5.2-11.5,2.8,1.6,5.6,2.9,8.8,3.9,3.4.9,6.5,1.8,9.9,2.2Z"/>
</svg>