<?xml version="1.0" encoding="UTF-8"?><svg id="Layer_2" xmlns="http://www.w3.org/2000/svg" viewBox="0 0 147.04 148"><defs><style>.cls-1{fill:#39b54a;}</style></defs><g id="Layer_1-2"><path class="cls-1" d="M140.71,65.33c-.32-.02-.62,0-.93-.02l-12.27-1.51c-4.19-.83-8.33-1.85-12.42-2.84l-5.92-2.17-2.94-1.07c-.96-.4-1.85-.95-2.77-1.42l-5.43-2.91-4.87-3.61c-6.17-5.12-10.73-11.68-13.06-18.95-1.23-3.61-1.82-7.43-2.06-11.22-.22-3.71.09-7.85.79-10.95l.05-.22c.07-.31.11-.62.14-.94.3-3.83-2.56-7.18-6.38-7.48-3.83-.3-7.18,2.56-7.48,6.38-.12,1.48-.16,2.89-.16,4.27l-1.18,9.64c-.83,4.19-1.85,8.33-2.84,12.42l-2.17,5.92-1.07,2.94c-.4.96-.95,1.85-1.42,2.77l-2.91,5.43-3.61,4.87c-5.12,6.17-11.68,10.73-18.95,13.06-3.61,1.23-7.43,1.82-11.22,2.06-3.71.22-7.85-.09-10.95-.79l-.22-.05c-.31-.07-.62-.11-.94-.14-3.83-.3-7.18,2.56-7.48,6.38-.3,3.83,2.56,7.18,6.38,7.48.43.03.83.03,1.26.05l11.94,1.46c4.19.83,8.33,1.85,12.42,2.84l5.92,2.17,2.94,1.07c.96.4,1.85.95,2.77,1.42l5.43,2.91,4.87,3.61c6.17,5.12,10.73,11.68,13.06,18.95,1.23,3.61,1.82,7.42,2.06,11.22.22,3.71-.09,7.85-.79,10.95l-.05.22c-.07.31-.11.62-.14.94-.3,3.83,2.56,7.18,6.38,7.48,3.83.3,7.18-2.56,7.48-6.38.13-1.59.16-3.1.15-4.57.83-7.06,2.26-15.65,4.03-21.76.74-1.96,2.52-6.96,3.24-8.86.85-1.91,3.37-6.28,4.33-8.19,9.26-15.06,27.74-22.97,44.74-19.21,9.74,2.07,12.12-12.52,2.26-13.67ZM82.78,114.5c-.69,4.65-1.02,10.35-1.11,15.87-.15-1.16-.34-2.33-.55-3.51-.94-4.7-2.34-9.32-4.47-13.61-4.13-8.66-10.88-15.85-18.67-20.68l-6-3.3c-2.09-.85-4.22-1.59-6.32-2.38-1.06-.37-2.08-.82-3.15-1.1l-3.25-.72-6.45-1.41c-4.36-.46-8.7-.92-13.01-1.19l-3.52.04c1.62-.18,3.24-.39,4.88-.69,4.7-.94,9.32-2.34,13.61-4.47,8.66-4.13,15.85-10.88,20.68-18.67l3.3-6c.85-2.09,1.59-4.22,2.38-6.32.37-1.06.82-2.08,1.1-3.15l.72-3.25,1.41-6.45c.46-4.36.92-8.7,1.19-13.02l-.03-2.53c.14,1.06.31,2.11.5,3.18.94,4.7,2.34,9.32,4.47,13.61,4.13,8.66,10.88,15.85,18.67,20.68l6,3.3c2.09.85,4.22,1.59,6.32,2.38,1.06.36,2.08.82,3.15,1.1l3.25.72,6.45,1.41c4.36.46,8.7.92,13.01,1.19l4.2-.05c-26.71,2.23-44.59,21.64-48.76,49.02Z"/></g></svg>