<?xml version="1.0" encoding="UTF-8"?><svg id="Layer_2" xmlns="http://www.w3.org/2000/svg" viewBox="0 0 148 148"><defs><style>.cls-1{fill:#39b54a;}</style></defs><g id="Layer_1-2"><path class="cls-1" d="M40.34,107.69c-.18-.06-.34-.12-.5-.16-4.18-1.06-8.29-2.35-12.29-3.97-4.19-1.69-8.22-3.71-12-6.19-2.59-1.69-5.02-3.58-7.21-5.76-2.69-2.66-4.95-5.62-6.48-9.1-1.3-2.96-1.95-6.04-1.83-9.28.11-2.97.87-5.79,2.16-8.47,1.36-2.83,3.2-5.32,5.36-7.58,2.6-2.73,5.56-5.02,8.73-7.04,3.97-2.52,8.18-4.54,12.56-6.23,3.52-1.36,7.12-2.47,10.77-3.41.17-.04.33-.09.5-.13.07-.02.14-.05.25-.09.11-.43.23-.88.35-1.33,1.44-5.5,3.29-10.84,5.75-15.97,1.94-4.04,4.21-7.86,7.01-11.37,2.1-2.63,4.46-5.01,7.19-6.99,2.29-1.66,4.76-2.97,7.49-3.78,4.9-1.44,9.69-1.07,14.37.97,2.95,1.29,5.53,3.12,7.88,5.29,2.92,2.7,5.34,5.8,7.46,9.14,2.72,4.29,4.86,8.85,6.62,13.6,1.23,3.31,2.24,6.68,3.1,10.1.02.09.05.19.09.31.23.13.49.18.75.25,4.78,1.22,9.46,2.75,13.99,4.72,4.22,1.83,8.24,4,11.98,6.69,2.75,1.98,5.29,4.2,7.48,6.8,1.97,2.33,3.59,4.88,4.7,7.73,1.13,2.92,1.6,5.94,1.37,9.06-.21,2.79-.98,5.42-2.22,7.92-1.37,2.77-3.19,5.21-5.32,7.42-2.63,2.74-5.61,5.04-8.81,7.05-4.23,2.66-8.73,4.77-13.41,6.51-3.28,1.22-6.63,2.23-10.02,3.09-.12.03-.24.06-.35.1-.04.02-.08.06-.16.11-.22.82-.44,1.68-.67,2.53-1.43,5.24-3.27,10.34-5.66,15.22-1.9,3.89-4.13,7.57-6.84,10.95-2.1,2.61-4.44,4.96-7.15,6.92-2.34,1.69-4.86,3.02-7.64,3.8-4.92,1.39-9.7.98-14.36-1.1-2.8-1.25-5.27-2.99-7.52-5.04-2.27-2.07-4.25-4.39-6.03-6.89-2.81-3.96-5.06-8.23-6.93-12.69-1.77-4.21-3.17-8.55-4.3-12.97-.07-.26-.14-.52-.21-.8ZM80.1,110.92c.11-.06.15-.09.19-.1,1.91-.23,3.81-.53,5.7-.88,4.42-.81,8.75-1.93,12.99-3.43,1.67-.59,3.31-1.28,4.96-1.91.33-.12.55-.31.65-.64.02-.07.06-.14.09-.2,2.91-6.87,4.8-14.02,5.87-21.4.11-.78.22-1.55.33-2.33.08.21.11.42.1.63-.02,1.08-.03,2.17-.07,3.25-.11,2.51-.25,5.02-.52,7.52-.16,1.49-.31,2.99-.52,4.48-.28,1.95-.63,3.89-.94,5.84-.02.13,0,.26,0,.46.22-.11.38-.18.52-.27.73-.41,1.47-.8,2.19-1.23,3.93-2.31,7.57-5,10.74-8.29,2.19-2.27,4.07-4.75,5.54-7.55,1.43-2.74,2.38-5.63,2.68-8.71.31-3.16-.05-6.25-1.06-9.26-1.1-3.29-2.84-6.22-5.01-8.91-1.99-2.47-4.28-4.63-6.78-6.58-2.59-2.03-5.35-3.78-8.25-5.33-.18-.09-.34-.27-.6-.2,0,.13-.01.23,0,.32.26,1.56.55,3.11.77,4.67.26,1.88.49,3.76.69,5.65.15,1.4.24,2.8.34,4.2.16,2.16.25,4.33.26,6.5,0,.23-.02.45-.04.68-.08-.07-.1-.14-.11-.21-.21-1.44-.39-2.88-.64-4.31-.75-4.4-1.8-8.73-3.2-12.98-.7-2.13-1.5-4.23-2.37-6.29-.15-.37-.36-.63-.75-.74-.14-.04-.27-.11-.41-.17-3.96-1.65-8.03-2.98-12.2-4.01-3.14-.77-6.3-1.38-9.5-1.82-.65-.09-1.32-.11-2.09-.39,1.04.03,1.93.04,2.81.08,1.7.07,3.4.12,5.1.23,1.55.1,3.1.24,4.64.41,1.81.2,3.62.43,5.43.69,1.39.2,2.77.45,4.16.68.11.02.22,0,.4,0-.13-.26-.22-.46-.33-.65-.43-.77-.86-1.55-1.31-2.32-2.3-3.87-4.98-7.46-8.25-10.59-2.6-2.49-5.48-4.59-8.77-6.09-2.88-1.31-5.9-2.06-9.07-2.14-3.12-.07-6.12.53-9.02,1.7-3.12,1.26-5.9,3.07-8.42,5.27-4.69,4.09-8.22,9.08-11.14,14.54-.04.08-.04.17-.06.27,2.52-.37,5-.75,7.48-1.09,2.47-.35,4.95-.55,7.43-.71,2.5-.16,5-.25,7.51-.24-.33.09-.67.17-1.01.21-2.15.26-4.29.62-6.42,1.04-4.85.95-9.58,2.3-14.19,4.07-.9.34-1.78.73-2.67,1.09-.27.11-.46.26-.56.54-.05.16-.14.32-.2.47-1.5,3.57-2.73,7.24-3.72,10.98-.91,3.48-1.63,7.01-2.11,10.58-.1.71-.21,1.42-.32,2.13-.09-.2-.09-.4-.09-.6.06-1.9.09-3.8.2-5.69.13-2.14.31-4.28.53-6.41.18-1.74.42-3.47.67-5.21.18-1.27.43-2.53.63-3.79.03-.18.12-.38-.05-.59-.19.09-.39.18-.58.28-2.07,1.11-4.06,2.33-5.98,3.67-3.26,2.29-6.25,4.9-8.79,7.98-2,2.43-3.65,5.08-4.79,8.03-1.19,3.08-1.73,6.27-1.52,9.56.18,2.88.92,5.63,2.13,8.26,1.39,3.03,3.29,5.72,5.55,8.16,3.97,4.28,8.67,7.58,13.81,10.3.07.04.16.04.3.08-.26-1.55-.53-3.03-.75-4.51-.22-1.46-.41-2.93-.57-4.4-.17-1.49-.3-2.99-.42-4.49-.11-1.47-.19-2.95-.26-4.43-.07-1.47-.17-2.94-.06-4.42.11.51.18,1.02.25,1.53.44,3.13,1,6.23,1.74,9.3,1.07,4.44,2.47,8.77,4.24,12.99.21.51.52.78,1,.98,1.91.79,3.84,1.53,5.81,2.18,5.7,1.9,11.53,3.18,17.49,3.92.07,0,.13.05.2.07-.76.07-1.49.08-2.23.07-.74-.01-1.48-.04-2.22-.07-.74-.03-1.48-.07-2.22-.11s-1.48-.1-2.21-.16c-.71-.06-1.42-.13-2.14-.2-.74-.07-1.47-.14-2.21-.22-.73-.08-1.47-.18-2.2-.28-.73-.1-1.47-.2-2.2-.31-.73-.11-1.46-.25-2.19-.35-.72-.11-1.42-.31-2.16-.34.01.1.01.16.03.2.05.11.1.22.16.33,1.66,3.09,3.54,6.04,5.74,8.78,2.26,2.82,4.8,5.37,7.74,7.48,3.56,2.56,7.45,4.31,11.84,4.85,2.07.26,4.14.21,6.19-.12,2.72-.45,5.28-1.38,7.71-2.69,3.24-1.76,6.04-4.07,8.56-6.74,3.29-3.49,5.94-7.42,8.19-11.64.07-.13.12-.27.2-.46-.79.05-1.5.25-2.22.36-.73.11-1.46.24-2.19.35-.73.11-1.46.21-2.2.31-.73.1-1.47.2-2.2.28-.73.08-1.47.15-2.21.22-.74.07-1.47.15-2.21.21-.74.06-1.48.11-2.21.15-.74.04-1.48.08-2.22.11-.74.03-1.48.06-2.22.06-.72,0-1.45.09-2.23-.03Z"/></g></svg>