<?xml version="1.0" encoding="UTF-8"?><svg id="Layer_2" xmlns="http://www.w3.org/2000/svg" viewBox="0 0 148 148"><defs><style>.cls-1{fill:#39b54a;}</style></defs><g id="Layer_1-2"><path class="cls-1" d="M147.25,71.2c-.97-1.65-2.75-2.51-4.82-2.53l-63.63,3.34,47.35-42.63.04-.04c1.49-1.43,2.07-3.31,1.58-5.17-.5-1.91-2.05-3.46-3.96-3.95-1.85-.48-3.73.09-5.2,1.62l-42.63,47.35,3.34-63.63v-.06c.04-2.06-.88-3.8-2.53-4.77-1.7-1-3.9-.99-5.6,0-1.65.97-2.57,2.71-2.53,4.82l3.34,63.63L29.38,21.85l-.04-.04c-1.44-1.49-3.33-2.08-5.16-1.58-1.91.5-3.46,2.05-3.96,3.96-.48,1.85.1,3.73,1.62,5.2l47.35,42.63-63.63-3.34h-.06c-2.03,0-3.8.88-4.77,2.53-1,1.7-.99,3.9,0,5.6.95,1.61,2.63,2.53,4.68,2.53.05,0,.1,0,.14,0l63.63-3.34-47.35,42.63-.04.04c-1.49,1.43-2.07,3.31-1.58,5.17.5,1.91,2.05,3.46,3.96,3.95.43.11.85.17,1.28.17,1.42,0,2.79-.61,3.92-1.79l42.63-47.35-3.34,63.63v.06c-.04,2.06.88,3.8,2.53,4.77.85.5,1.82.74,2.79.74s1.95-.25,2.8-.75c1.65-.97,2.57-2.71,2.53-4.82l-3.34-63.63,42.63,47.35.04.04c1.1,1.15,2.47,1.75,3.88,1.75.43,0,.86-.05,1.29-.17,1.91-.5,3.46-2.05,3.95-3.96.48-1.85-.1-3.73-1.62-5.2l-47.35-42.63,63.63,3.34h.06s.09,0,.13,0c2.01,0,3.69-.92,4.64-2.53,1-1.7.99-3.9,0-5.6ZM74.01,74.01h-.02v-.02h0s0,0,0,0h0v.02h0Z"/></g></svg>