<?xml version="1.0" encoding="UTF-8"?><svg id="Layer_2" xmlns="http://www.w3.org/2000/svg" viewBox="0 0 142.05 148"><defs><style>.cls-1{fill:#39b54a;}</style></defs><g id="Layer_1-2"><path class="cls-1" d="M93.16,41.49c-4.54-10.89-10.6-17.55-17.29-17.55-13.82,0-25.05,28.48-25.05,63.62,0,7.76.55,15.22,1.57,22.12-4.79-11.57-7.8-27.93-7.8-46.07C44.58,28.48,55.82,0,69.63,0c10.81,0,20,17.25,23.52,41.49Z"/><path class="cls-1" d="M16.1,98.66c-4.5,10.91-4.92,19.9-.18,24.64,9.77,9.77,37.85-2.43,62.7-27.27,5.48-5.48,10.37-11.15,14.54-16.75-4.8,11.57-14.24,25.26-27.06,38.09-24.85,24.85-52.93,37.04-62.7,27.27-7.64-7.64-1.95-26.34,12.71-45.97Z"/><path class="cls-1" d="M92.71,131.9c10.91,4.5,19.9,4.92,24.64.18,9.77-9.77-2.43-37.85-27.27-62.7-5.48-5.48-11.15-10.37-16.75-14.54,11.57,4.8,25.26,14.24,38.09,27.06,24.85,24.85,37.04,52.93,27.27,62.7-7.64,7.64-26.34,1.95-45.97-12.71Z"/></g></svg>