<?xml version="1.0" encoding="UTF-8"?><svg id="Layer_2" xmlns="http://www.w3.org/2000/svg" viewBox="0 0 2788.42 644.34"><defs><style>.cls-1{fill:#3bb44a;}</style></defs><g id="Layer_1-2"><polygon points="1139.95 31.31 1187.56 31.31 1147.36 184.22 1178.15 184.22 1218.35 31.31 1266.21 31.31 1273.63 3.1 1147.36 3.1 1139.95 31.31"/><polygon points="1435.53 124.46 1415.42 3.1 1332.03 124.46 1320.98 3.1 1285.53 3.1 1309.4 193.8 1398.96 65.72 1421.18 193.8 1545.31 3.1 1509.86 3.1 1435.53 124.46"/><path d="M1720.51,56.15c-1.66-11.38-5.67-21.26-12.01-29.63-6.34-8.37-14.59-14.88-24.75-19.54-10.16-4.66-22.06-6.99-35.68-6.99s-26.27,2.33-38.97,6.99c-12.7,4.66-24.41,11.17-35.15,19.54-10.74,8.37-19.93,18.24-27.58,29.63-7.65,11.39-13.27,23.89-16.85,37.52-3.54,13.45-4.5,25.96-2.88,37.52,1.62,11.56,5.5,21.56,11.65,30.01,6.14,8.45,14.37,15.05,24.68,19.79,10.31,4.74,22.19,7.12,35.65,7.12s26.8-2.37,39.52-7.12c12.72-4.74,24.41-11.34,35.09-19.79,10.67-8.45,19.86-18.46,27.55-30.01,7.69-11.55,13.31-24.06,16.85-37.52,3.58-13.62,4.54-26.13,2.88-37.52ZM1668.4,126.91c-7.83,9.75-17.08,17.38-27.75,22.9-10.68,5.52-22.06,8.28-34.13,8.28s-21.79-2.76-29.65-8.28c-7.86-5.52-13.15-13.15-15.84-22.9-2.7-9.74-2.42-20.83.85-33.25s8.81-23.5,16.63-33.25c7.82-9.74,17.12-17.38,27.88-22.9,10.76-5.52,22.1-8.28,34-8.28s22.26,2.76,30.04,8.28c7.77,5.52,12.97,13.16,15.58,22.9,2.61,9.75,2.29,20.83-.98,33.25-3.26,12.42-8.81,23.51-16.63,33.25Z"/><polygon points="1080.52 259.42 1128.13 259.42 1087.93 412.34 1118.72 412.34 1158.92 259.42 1206.79 259.42 1214.2 231.22 1087.94 231.22 1080.52 259.42"/><polygon points="1379.18 352.57 1359.08 231.22 1275.69 352.57 1264.64 231.22 1229.19 231.22 1253.06 421.91 1342.62 293.83 1364.84 421.91 1488.97 231.22 1453.52 231.22 1379.18 352.57"/><polygon points="1530.11 231.22 1511.22 231.22 1463.61 412.34 1482.49 412.34 1493.62 412.34 1573.83 412.34 1580.9 385.43 1500.69 385.43 1515.66 328.51 1590.69 328.51 1597.63 302.11 1522.6 302.11 1534.16 258.13 1614.37 258.13 1621.44 231.22 1541.23 231.22 1530.11 231.22"/><polygon points="1759.21 352.83 1658.96 231.22 1611.35 412.34 1641.36 412.34 1673.33 290.73 1771.2 421.39 1821.19 231.22 1791.18 231.22 1759.21 352.83"/><polygon points="1835.77 259.42 1883.38 259.42 1843.18 412.34 1873.97 412.34 1914.17 259.42 1962.04 259.42 1969.45 231.22 1843.19 231.22 1835.77 259.42"/><polygon points="2036.5 308.84 2014.73 231.22 1980.06 231.22 2013.77 336.27 1993.77 412.34 2024.82 412.34 2044.89 336.01 2134.01 231.22 2099.08 231.22 2036.5 308.84"/><polygon points="2207.07 259.42 2254.68 259.42 2214.48 412.34 2245.27 412.34 2285.47 259.42 2333.34 259.42 2340.75 231.22 2214.48 231.22 2207.07 259.42"/><polygon points="2502.65 352.57 2482.54 231.22 2399.15 352.57 2388.1 231.22 2352.65 231.22 2376.52 421.91 2466.08 293.83 2488.3 421.91 2612.43 231.22 2576.98 231.22 2502.65 352.57"/><path d="M2787.63,284.26c-1.66-11.38-5.67-21.26-12.01-29.63-6.34-8.37-14.59-14.88-24.75-19.54-10.16-4.66-22.06-6.99-35.68-6.99s-26.27,2.33-38.97,6.99c-12.7,4.66-24.41,11.17-35.15,19.54-10.74,8.37-19.93,18.24-27.58,29.63-7.65,11.39-13.27,23.89-16.85,37.52-3.54,13.45-4.5,25.96-2.88,37.52,1.62,11.56,5.5,21.56,11.65,30.01,6.14,8.45,14.37,15.05,24.68,19.79,10.31,4.74,22.19,7.12,35.65,7.12s26.8-2.37,39.52-7.12c12.72-4.74,24.41-11.34,35.09-19.79,10.67-8.45,19.86-18.46,27.55-30.01,7.69-11.55,13.31-24.06,16.85-37.52,3.58-13.62,4.54-26.13,2.88-37.52ZM2735.52,355.03c-7.83,9.75-17.08,17.38-27.75,22.9-10.68,5.52-22.06,8.28-34.13,8.28s-21.79-2.76-29.65-8.28c-7.86-5.52-13.15-13.15-15.84-22.9-2.7-9.74-2.42-20.83.85-33.25,3.26-12.42,8.81-23.5,16.63-33.25,7.82-9.74,17.12-17.38,27.88-22.9,10.76-5.52,22.1-8.28,34-8.28s22.26,2.76,30.04,8.28c7.77,5.52,12.97,13.16,15.58,22.9,2.61,9.75,2.29,20.83-.98,33.25-3.26,12.42-8.81,23.51-16.63,33.25Z"/><polygon points="1062.26 573.18 1020.31 450.28 945.48 640.45 977.05 640.45 1018.44 530.23 1049 623.64 1128.67 530.23 1112.37 640.45 1143.94 640.45 1169.09 450.28 1062.26 573.18"/><polygon points="1240.19 459.33 1221.31 459.33 1173.69 640.45 1192.58 640.45 1203.71 640.45 1283.92 640.45 1290.99 613.54 1210.78 613.54 1225.74 556.62 1300.78 556.62 1307.72 530.23 1232.68 530.23 1244.24 486.24 1324.46 486.24 1331.53 459.33 1251.32 459.33 1240.19 459.33"/><path d="M1473.21,470.59c-12-7.5-27.23-11.26-45.68-11.26h-58.48l-47.61,181.12h58.48c18.46,0,35.66-3.75,51.6-11.26,15.94-7.5,29.62-18.02,41.03-31.57,11.41-13.54,19.52-29.45,24.32-47.74,4.81-18.28,5.06-34.19.78-47.74-4.29-13.54-12.43-24.06-24.43-31.57ZM1453.7,576.8c-5.23,7.76-11.33,14.23-18.3,19.41-6.97,5.18-14.59,9.06-22.86,11.64-8.27,2.59-16.89,3.88-25.86,3.88h-26.65l32.51-123.68h26.65c8.97,0,16.91,1.29,23.82,3.88,6.91,2.59,12.49,6.47,16.73,11.64,4.24,5.17,6.94,11.64,8.09,19.41,1.15,7.76.39,16.73-2.29,26.91-2.68,10.18-6.63,19.15-11.86,26.91Z"/><polygon points="1502.81 640.45 1533.61 640.45 1581.22 459.33 1550.43 459.33 1502.81 640.45"/><path d="M1554.56,640.45h34.41l32.87-46.57h66.75l8.53,46.57h34.41l-38.22-191.21-138.76,191.21ZM1686.62,568.01h-49.11l39.69-57.44,9.42,57.44Z"/><path d="M1885.63,569.56c-1.13-5.86-3.36-11-6.69-15.39-3.33-4.4-7.33-8.06-11.99-11-4.66-2.93-9.42-5.34-14.27-7.24-8.76-3.45-15.72-6.81-20.89-10.09-5.18-3.27-8.7-6.77-10.57-10.48-1.87-3.71-2.2-7.89-.97-12.55,1.36-5.17,4.53-9.7,9.52-13.58,4.99-3.88,11.71-5.82,20.16-5.82,6.04,0,11.03,1.16,14.99,3.49,3.96,2.33,7.15,5.43,9.58,9.32,2.43,3.88,4.17,8.07,5.24,12.55l28.51-13.97c-1.43-6.38-4.09-12.5-7.98-18.37-3.89-5.86-9.31-10.69-16.24-14.49-6.94-3.79-15.75-5.69-26.45-5.69s-21.1,2.03-30.71,6.08c-9.6,4.05-17.87,9.75-24.8,17.08-6.93,7.33-11.66,15.83-14.2,25.49-2.22,8.45-2.48,15.65-.76,21.61,1.71,5.95,4.53,10.96,8.47,15.01,3.94,4.06,8.31,7.42,13.13,10.09,4.82,2.68,9.26,4.79,13.34,6.34,6.86,2.76,12.81,5.56,17.84,8.41,5.03,2.85,8.65,6.3,10.86,10.35,2.21,4.05,2.43,9.44.66,16.17-1.86,7.08-5.97,12.85-12.32,17.34-6.36,4.49-13.67,6.73-21.95,6.73-6.9,0-12.74-1.42-17.51-4.27-4.77-2.85-8.76-6.9-11.94-12.16-3.19-5.26-5.86-11.34-8.01-18.24l-26.92,15.78c1.79,8.28,5.12,15.96,9.99,23.03,4.87,7.07,11.27,12.72,19.22,16.95,7.95,4.22,17.26,6.34,27.96,6.34,7.76,0,15.55-1.25,23.37-3.75,7.81-2.5,15.17-6.04,22.07-10.61,6.89-4.57,12.86-10.22,17.91-16.95,5.04-6.73,8.68-14.32,10.9-22.77,2.09-7.93,2.56-14.83,1.43-20.7Z"/><path class="cls-1" d="M246.56,493.83h145.21c-1.36-3.4-2.64-7.11-3.8-10.67-7.7-23.45-11.71-48.83-12.09-75.84-.18-9.22.17-18.6.87-28.14l-130.19,114.64ZM396.09,493.83h0l-151.7,137.77H16.1c-5.12,0-9.38-2.1-12.74-6.47-3.19-4.37-4.14-9.38-2.72-14.88l16.06-62.09c1-3.88,2.77-7.6,5.29-11.16L350.86,234.79c9.62-8.73,16.31-16.01,19.78-21.99,3.51-6.14,6.23-12.94,8.19-20.54,2.43-9.38,2.84-17.79,1-24.9-1.64-7.28-4.69-13.42-9.2-18.27-4.67-4.85-10.15-8.41-16.69-11-6.42-2.43-13.45-3.72-20.81-3.72-8.32,0-16.43,1.62-24.67,5.01-8.04,3.23-15.78,7.76-22.68,13.42-6.91,5.66-13.1,12.29-18.35,19.57-5.13,7.44-8.85,15.04-10.86,22.8l-5.94,22.96c-1.17,4.53-4.06,8.89-8.75,13.42-4.65,4.37-10.36,6.63-17.08,6.63h-105.66c-6.88,0-11.03-1.94-12.62-5.66-1.76-3.72-2.04-7.6-.95-11.8l5.6-21.67c7.57-29.27,19.79-56.11,36.79-80.36,17.04-24.42,37.05-45.44,60.18-63.06,22.93-17.46,47.89-31.05,74.94-40.91,27.05-9.86,54.4-14.71,82.25-14.71s54.38,4.53,77.82,13.58c23.59,9.06,43.18,21.83,58.61,38.32,13.13,14.23,22.87,31.05,28.9,50.45,2.26-1.94,4.48-3.72,6.71-5.5,24.11-19.57,49.71-36.22,76.64-49.96,26.93-13.74,54.98-24.42,83.73-32.18,28.86-7.6,57.68-11.32,86.98-11.32s55.87,3.72,80.8,11.32c3.71,1.13,7.22,2.43,10.77,3.56-21.43,1.13-42.57,5.5-63.42,13.1-24.92,9.06-47.83,21.51-68.78,37.51-21.19,16.33-39.46,35.57-55.11,57.73-9.92,14.23-18.18,29.43-24.56,45.44,12.57,7.11,23.52,15.52,32.78,25.55,10.4,11.16,18.42,24.09,23.95,38.65h38.26c6.08,0,11.27-2.1,15.68-6.14,4.25-4.04,6.89-8.08,7.94-12.13l5.44-21.02c1.88-7.28,5.28-14.23,10.08-21.02,4.76-6.63,10.31-12.61,16.65-17.95,6.46-5.17,13.43-9.22,20.95-12.29,7.36-3.07,14.98-4.69,22.51-4.69,6.72,0,13.11,1.29,19.09,3.56,5.98,2.26,11.07,5.5,15.18,10.03,4.11,4.53,7.01,10.03,8.66,16.65,1.49,6.63,1.12,14.23-1.14,22.96-1.8,6.95-4.19,13.1-7.41,18.76-3.18,5.5-9.22,12.13-18.15,20.05l-301.21,276.99c-2.48,3.4-4.16,6.79-5.04,10.19l-14.76,57.08c-1.3,5.01-.39,9.54,2.57,13.58,3,3.88,6.98,5.82,11.78,5.82h223.49l-1.29.65c-26.97,13.91-54.87,24.58-83.89,32.18-28.82,7.44-57.8,11.16-86.62,11.16s-56.19-3.72-81.16-11.16c-24.77-7.6-47.31-18.27-67.08-32.18-4.77-3.23-9.29-6.79-13.65-10.35l149.61-129.68c9.7-8.41,19.36-17.3,28.63-26.52,9.31-9.38,18.15-19.4,26.35-30.08,8.2-10.67,15.29-21.99,21.79-34.12,6.34-12.13,11.44-25.06,15-38.81,6.9-26.68,7.69-50.77,2.68-72.28-5.16-21.51-14.81-39.94-28.97-55.14-14.2-15.04-31.96-26.84-53.68-35.09-21.56-8.25-45.29-12.45-71.22-12.45-3.84,0-7.73.16-11.61.32h-.32l-.68.16h-2.08l-.2.16h-1.76l-1,.16h-1.12l-.36.16h-1.12l-.52.16h-.96l-1,.16h-1.12l-.84.16h-.32l-.68.16h-.48l-.52.16h-.96l-.84.16h-.16l-1,.16h0l-1,.16h-.32l-.84.16h-.32l-.68.16h-.48l-.52.16h-.64l-.2.16-1,.16h0l-1,.16h-.16l-.84.16h-.32l-.68.16-1,.16h0l-.68.16h-.32l-.84.16h-.16l-1.04.32h0l-1,.16h-.16l-.84.16-.36.16h-.64l-.52.16-.52.16-.68.16h-.16l-1,.16-.04.16-1,.16h0l-1,.16-1.04.32-.36.16h-.64l-.52.16-.36.16-.84.16-.2.16-1,.16h0l-1.04.32h0l-.84.16-.36.16-.68.16-.52.16-.52.16-.68.16-.36.16-.68.16h-.16l-1.04.32h0l-1.04.32h-.16l-.72.32-.52.16-.52.16-.52.16-.52.16-.68.16-.2.16-1,.16-.04.16-1.04.32h0l-.88.32h-.32l-.72.32-.52.16-.52.16-.52.16-.36.16-.88.32h-.16l-.88.32h-.16l-.2.16h-.16l-.2.16h-.32l-.2.16h-.16l-.2.16h-.32l-.2.16h-.16l-.2.16h-.32l-.2.16h-.16l-.2.16h-.16l-.2.16h-.32l-.2.16h-.16l-.2.16h-.16l-.2.16h-.32l-.2.16h-.16l-.2.16h-.16l-.2.16h-.32l-.2.16h-.16l-.2.16h-.16l-.2.16h-.32l-.2.16h0c-21.79,8.73-42.05,20.21-60.82,34.6-21.15,16.17-39.42,35.41-55.11,57.73-15.49,22.15-26.81,46.73-33.76,73.57l-5.14,19.89c-1,3.88-.64,7.44.88,10.83,1.52,3.4,5.39,5.17,11.63,5.17h96.86c6.08,0,11.23-1.94,15.68-6.14,4.25-4.04,6.89-8.08,7.94-12.13l5.44-21.02c1.84-7.11,5.28-14.23,10.08-21.02,4.76-6.63,10.31-12.61,16.65-17.95,6.46-5.17,13.43-9.22,20.95-12.29,7.52-3.07,14.94-4.53,22.46-4.53,6.72,0,13.16,1.13,19.13,3.4,5.98,2.26,11.02,5.66,15.18,10.03,4.11,4.53,7.01,10.03,8.66,16.65,1.49,6.63,1.08,14.39-1.14,22.96-1.8,6.95-4.19,13.1-7.41,18.76-3.18,5.5-9.22,12.13-18.15,20.05l-138.72,125.96ZM1027.73,224.92c.19,4.2.35,8.57.5,12.94.5,27.17-3.14,55.46-10.66,84.57-7.61,29.43-18.61,57.73-33.16,84.89-12.01,22.31-25.78,43.34-41.17,63.22h-163.94l168.3-148.12c9.7-8.41,19.2-17.3,28.63-26.52,9.31-9.38,18.15-19.4,26.35-30.08,8.2-10.67,15.29-21.99,21.79-34.12,1.23-2.26,2.29-4.53,3.36-6.79h0Z"/><polygon class="cls-1" points="1963.07 498.12 1979.45 533.77 2005.13 498.12 2004.48 540.18 2016.52 540.18 2016.53 467.61 1981.96 514.51 1959.75 467.61 1940.79 540.18 1952.83 540.18 1963.07 498.12"/><path class="cls-1" d="M2020.48,540.18h13.13l10.2-17.77h25.47l5.61,17.77h13.13l-24.24-72.97-43.31,72.97ZM2067.22,512.53h-18.74l12.24-21.92,6.49,21.92Z"/><path class="cls-1" d="M2143.82,503.85c2.46-3.23,3.98-7.01,4.54-11.36.57-4.34.04-8.11-1.59-11.31-1.62-3.19-4.18-5.68-7.66-7.46-3.49-1.78-7.73-2.67-12.74-2.67h-21.32l-9.03,69.12h11.65l3.42-26.17h7.12l14.05,26.17h14.02l-15.98-27.6c1.31-.38,2.67-.68,3.9-1.23,3.95-1.78,7.16-4.28,9.62-7.5ZM2128.67,503.05c-2.13.92-4.51,1.38-7.14,1.38h-9.18l3.04-23.3h9.18c2.63,0,4.89.46,6.79,1.38,1.89.92,3.27,2.24,4.17,3.95.89,1.71,1.18,3.82.86,6.32-.32,2.44-1.15,4.53-2.5,6.27-1.35,1.75-3.08,3.08-5.21,4Z"/><polygon class="cls-1" points="2193.58 540.18 2207.9 540.18 2182.08 503.45 2215.44 471.06 2201.42 471.06 2171.99 499.77 2175.74 471.06 2163.8 471.06 2154.77 540.18 2166.71 540.18 2170.92 508.01 2193.58 540.18"/><polygon class="cls-1" points="2227.34 540.18 2257.95 540.18 2259.3 529.91 2228.69 529.91 2231.53 508.19 2260.16 508.19 2261.48 498.12 2232.84 498.12 2235.03 481.33 2265.65 481.33 2266.98 471.06 2236.37 471.06 2232.13 471.06 2224.92 471.06 2215.89 540.18 2223.1 540.18 2227.34 540.18"/><polygon class="cls-1" points="2274.39 471.06 2272.99 481.82 2291.15 481.82 2283.53 540.18 2295.28 540.18 2302.91 481.82 2321.18 481.82 2322.58 471.06 2274.39 471.06"/><polygon class="cls-1" points="2342.82 471.06 2331.07 471.06 2322.04 540.18 2333.79 540.18 2342.82 471.06"/><polygon class="cls-1" points="2420.14 471.06 2408.69 471.06 2402.62 517.47 2358.68 467.61 2349.19 540.18 2360.65 540.18 2366.71 493.77 2410.66 543.64 2420.14 471.06"/><path class="cls-1" d="M2444.34,539.05c4.18,1.75,8.88,2.62,14.07,2.62,5.46,0,10.48-1,15.06-3.01,4.58-2.01,8.54-4.75,11.89-8.24,3.35-3.49,6.04-7.49,8.08-12,2.04-4.51,3.33-9.3,3.85-14.37h-33.27l-1.29,9.88h21.24c-.9,2.3-2.07,4.48-3.52,6.52-1.45,2.04-3.17,3.85-5.15,5.43s-4.25,2.8-6.8,3.66c-2.55.86-5.37,1.28-8.47,1.28-4.54,0-8.48-1.05-11.83-3.16-3.34-2.11-5.84-5.05-7.48-8.84-1.64-3.79-2.14-8.18-1.49-13.18.66-5.07,2.32-9.46,4.98-13.18,2.65-3.72,5.93-6.61,9.82-8.69,3.89-2.07,8.07-3.11,12.55-3.11,4.81,0,8.77.99,11.91,2.96,3.13,1.97,5.43,4.61,6.91,7.9l10.31-6.32c-1.62-3.22-3.75-5.97-6.38-8.25-2.63-2.27-5.71-4.01-9.24-5.23-3.53-1.22-7.56-1.83-12.11-1.83-5.2,0-10.13.86-14.8,2.57-4.67,1.71-8.84,4.16-12.51,7.36-3.67,3.19-6.7,6.98-9.08,11.36-2.38,4.38-3.92,9.2-4.61,14.47-.69,5.27-.43,10.11.77,14.52,1.2,4.41,3.22,8.23,6.06,11.45,2.84,3.23,6.34,5.71,10.53,7.45Z"/><path class="cls-1" d="M2584.13,526.84c1.32-1.19,2.75-2.2,4.01-3.49,3.23-3.32,6.28-6.67,9.16-10.02l-7.01-5.33c-2.65,3.16-5.38,6.17-8.19,9.04-1.06,1.08-2.17,1.89-3.25,2.88l-12.63-16.6c1.76-1.05,3.57-2.1,5.05-3.11,2.1-1.45,3.9-2.93,5.42-4.44,1.51-1.51,2.73-3.09,3.63-4.74.9-1.65,1.48-3.42,1.73-5.33.37-2.76,0-5.35-1.11-7.75-1.1-2.4-2.89-4.36-5.35-5.88-2.47-1.51-5.61-2.27-9.43-2.27s-7.02.69-10,2.07c-2.99,1.38-5.4,3.29-7.27,5.73-1.86,2.43-3,5.17-3.39,8.2-.31,2.44-.03,4.67.85,6.71.89,2.04,2,3.9,3.37,5.58,1,1.24,1.84,2.34,2.67,3.45-1.84.79-3.7,1.65-5.65,2.67-2.19,1.15-4.26,2.55-6.22,4.2-1.96,1.65-3.65,3.57-5.05,5.78-1.41,2.21-2.31,4.79-2.7,7.75-.52,4.02.09,7.47,1.86,10.37,1.75,2.9,4.28,5.12,7.56,6.67,3.29,1.54,6.94,2.32,10.96,2.32,4.61,0,8.96-.82,13.05-2.47,3.59-1.44,6.94-3.44,10.17-5.67l5.35,7.05h12.54l-10.16-13.34ZM2558.94,480.79c1.53-1.42,3.55-2.12,6.06-2.12,1.65,0,2.98.35,4.01,1.04,1.03.69,1.78,1.6,2.26,2.72.48,1.12.63,2.4.43,3.85-.27,2.04-1.56,4.17-3.89,6.37-1.64,1.55-3.82,3.03-6.26,4.47-1.23-1.66-2.5-3.37-3.52-4.76-1.48-2.01-2.09-4.07-1.82-6.17.29-2.17,1.2-3.97,2.73-5.38ZM2564.62,529.91c-3,1.32-6.02,1.98-9.05,1.98-2.5,0-4.65-.44-6.44-1.33-1.8-.89-3.14-2.16-4.05-3.8-.9-1.64-1.21-3.52-.94-5.63.3-2.3,1.13-4.26,2.5-5.88,1.36-1.61,3.04-3.01,5.04-4.2,1.83-1.08,3.74-2.06,5.71-2.98l13.67,18.01c-2.14,1.42-4.26,2.87-6.44,3.82Z"/><polygon class="cls-1" points="1999.15 612.16 1985.8 562.4 1959.64 612.16 1949.3 565.85 1935.77 565.85 1954.51 638.63 1982.22 589.75 1997.17 638.63 2034.91 565.85 2021.39 565.85 1999.15 612.16"/><polygon class="cls-1" points="2050.62 565.85 2043.41 565.85 2034.37 634.97 2041.59 634.97 2045.83 634.97 2076.44 634.97 2077.79 624.7 2047.18 624.7 2050.01 602.98 2078.65 602.98 2079.97 592.91 2051.33 592.91 2053.52 576.12 2084.13 576.12 2085.47 565.85 2054.86 565.85 2050.62 565.85"/><path class="cls-1" d="M2134.68,600.71c-2.01-1.43-4.4-2.43-7.07-3.16.12-.04.26-.05.38-.1,3.49-1.25,6.33-3.08,8.52-5.48,2.19-2.4,3.51-5.32,3.96-8.74.51-3.95,0-7.21-1.54-9.78-1.54-2.57-3.9-4.48-7.06-5.73-3.16-1.25-6.92-1.88-11.25-1.88h-20.84l-9.03,69.12h22.02c4.87,0,9.26-.71,13.17-2.12,3.9-1.41,7.12-3.6,9.64-6.57,2.53-2.96,4.09-6.71,4.69-11.26.42-3.29.14-6.12-.87-8.49-1.01-2.37-2.58-4.31-4.72-5.83ZM2118.59,575.43c3.22,0,5.75.79,7.59,2.37,1.83,1.58,2.56,3.82,2.18,6.71-.25,1.91-.93,3.54-2.02,4.89-1.1,1.35-2.51,2.39-4.25,3.11-1.74.72-3.7,1.09-5.87,1.09h-8.39l2.37-18.17h8.39ZM2125.86,620.26c-1.4,1.71-3.18,3-5.34,3.85-2.15.86-4.55,1.28-7.18,1.28h-9.68l2.97-22.71h9.67c1.98,0,3.76.21,5.35.64,1.59.43,2.93,1.12,4.02,2.07,1.09.95,1.89,2.14,2.4,3.56.51,1.42.64,3.04.4,4.89-.33,2.57-1.21,4.71-2.62,6.42Z"/><path class="cls-1" d="M2208.89,575.04c2.3,0,4.27.44,5.89,1.33,1.63.89,3.01,2.07,4.13,3.55,1.13,1.48,2.01,3.08,2.64,4.79l10.17-5.33c-.87-2.44-2.19-4.77-3.97-7.01s-4.09-4.08-6.92-5.53c-2.84-1.45-6.31-2.17-10.38-2.17s-7.95.77-11.42,2.32c-3.46,1.55-6.32,3.72-8.6,6.52-2.28,2.8-3.66,6.04-4.13,9.73-.43,3.23-.16,5.97.79,8.25.96,2.27,2.28,4.18,3.99,5.73,1.7,1.55,3.55,2.83,5.52,3.85,1.98,1.02,3.78,1.83,5.41,2.42,2.76,1.05,5.17,2.12,7.23,3.21,2.07,1.09,3.62,2.4,4.67,3.95,1.05,1.55,1.4,3.6,1.07,6.17-.36,2.7-1.63,4.91-3.83,6.62-2.19,1.71-4.87,2.57-8.03,2.57-2.63,0-4.93-.54-6.9-1.63-1.97-1.09-3.69-2.63-5.17-4.64-1.48-2.01-2.81-4.33-3.98-6.96l-9.47,6.02c1.1,3.16,2.76,6.09,4.97,8.79,2.21,2.7,4.94,4.86,8.19,6.47,3.24,1.61,6.9,2.42,10.99,2.42,2.97,0,5.87-.48,8.73-1.43,2.86-.95,5.48-2.3,7.89-4.05,2.4-1.74,4.39-3.9,5.98-6.47,1.59-2.57,2.59-5.46,3.01-8.69.39-3.03.23-5.66-.5-7.9-.73-2.24-1.84-4.2-3.33-5.88-1.5-1.68-3.21-3.08-5.14-4.2-1.92-1.12-3.86-2.04-5.81-2.77-3.52-1.32-6.34-2.6-8.48-3.85-2.14-1.25-3.66-2.58-4.56-4-.9-1.42-1.23-3.01-1-4.79.26-1.98,1.24-3.7,2.94-5.18,1.71-1.48,4.17-2.22,7.4-2.22Z"/><path class="cls-1" d="M2302.29,574.79c-2.85-3.19-6.32-5.68-10.43-7.46-4.11-1.78-8.77-2.67-13.97-2.67s-9.9.89-14.52,2.67c-4.61,1.78-8.75,4.26-12.43,7.46-3.68,3.19-6.68,6.96-9.04,11.31-2.34,4.34-3.86,9.12-4.54,14.32-.67,5.14-.41,9.91.8,14.32,1.2,4.41,3.19,8.23,5.95,11.45,2.77,3.23,6.25,5.74,10.42,7.56,4.17,1.81,8.83,2.71,13.96,2.71s10.11-.9,14.72-2.71c4.62-1.81,8.75-4.33,12.39-7.56,3.65-3.22,6.65-7.04,9-11.45,2.35-4.41,3.86-9.18,4.54-14.32.68-5.2.41-9.97-.8-14.32-1.21-4.34-3.24-8.11-6.07-11.31ZM2292.05,613.1c-2.5,3.72-5.64,6.63-9.44,8.74-3.8,2.11-8,3.16-12.6,3.16s-8.45-1.05-11.74-3.16c-3.28-2.11-5.68-5.02-7.2-8.74-1.53-3.72-1.97-7.95-1.36-12.69.62-4.74,2.17-8.97,4.67-12.69,2.49-3.72,5.66-6.63,9.48-8.74,3.83-2.1,8.02-3.16,12.56-3.16s8.63,1.06,11.88,3.16c3.25,2.11,5.62,5.02,7.11,8.74,1.49,3.72,1.92,7.95,1.31,12.69-.62,4.74-2.18,8.97-4.67,12.69Z"/><polygon class="cls-1" points="2336.68 565.85 2325.03 565.85 2315.99 634.97 2355.1 634.97 2356.46 624.51 2329.02 624.51 2336.68 565.85"/><path class="cls-1" d="M2404.74,611.77c-.56,4.28-2.16,7.72-4.81,10.32-2.65,2.6-6.17,3.9-10.59,3.9s-7.68-1.3-9.61-3.9c-1.94-2.6-2.62-6.04-2.06-10.32l6-45.92h-11.65l-6.07,46.41c-.5,3.82-.35,7.23.44,10.22.8,3,2.19,5.55,4.19,7.65,1.99,2.11,4.46,3.72,7.41,4.84,2.95,1.12,6.27,1.68,9.95,1.68s7.16-.56,10.39-1.68c3.24-1.12,6.12-2.73,8.63-4.84,2.51-2.11,4.57-4.66,6.18-7.65,1.61-3,2.67-6.4,3.16-10.22l6.06-46.41h-11.65l-6,45.92Z"/><polygon class="cls-1" points="2428.98 576.62 2447.15 576.62 2439.52 634.97 2451.28 634.97 2458.9 576.62 2477.17 576.62 2478.58 565.85 2430.39 565.85 2428.98 576.62"/><polygon class="cls-1" points="2478.04 634.97 2489.79 634.97 2498.82 565.85 2487.07 565.85 2478.04 634.97"/><path class="cls-1" d="M2570.68,574.79c-2.85-3.19-6.32-5.68-10.43-7.46-4.12-1.78-8.78-2.67-13.97-2.67s-9.91.89-14.52,2.67c-4.61,1.78-8.76,4.26-12.44,7.46-3.67,3.19-6.68,6.96-9.03,11.31-2.34,4.34-3.86,9.12-4.54,14.32-.67,5.14-.41,9.91.79,14.32,1.2,4.41,3.19,8.23,5.96,11.45,2.77,3.23,6.25,5.74,10.42,7.56,4.17,1.81,8.82,2.71,13.96,2.71s10.1-.9,14.72-2.71c4.61-1.81,8.75-4.33,12.39-7.56,3.64-3.22,6.64-7.04,9-11.45,2.35-4.41,3.87-9.18,4.54-14.32.68-5.2.42-9.97-.79-14.32-1.21-4.34-3.24-8.11-6.07-11.31ZM2560.43,613.1c-2.49,3.72-5.64,6.63-9.44,8.74-3.8,2.11-8,3.16-12.6,3.16s-8.45-1.05-11.73-3.16c-3.28-2.11-5.68-5.02-7.2-8.74-1.52-3.72-1.97-7.95-1.35-12.69.62-4.74,2.17-8.97,4.67-12.69,2.49-3.72,5.66-6.63,9.48-8.74,3.83-2.1,8.01-3.16,12.56-3.16s8.63,1.06,11.88,3.16c3.25,2.11,5.61,5.02,7.1,8.74,1.49,3.72,1.93,7.95,1.31,12.69-.62,4.74-2.17,8.97-4.67,12.69Z"/><polygon class="cls-1" points="2637.81 612.26 2593.87 562.4 2584.38 634.97 2595.84 634.97 2601.9 588.56 2645.85 638.43 2655.33 565.85 2643.87 565.85 2637.81 612.26"/><path class="cls-1" d="M2705.5,602.04c-1.49-1.68-3.2-3.08-5.12-4.2-1.93-1.12-3.87-2.04-5.81-2.77-3.52-1.32-6.34-2.6-8.48-3.85-2.14-1.25-3.66-2.58-4.56-4-.9-1.42-1.23-3.01-1-4.79.26-1.98,1.24-3.7,2.94-5.18,1.71-1.48,4.17-2.22,7.4-2.22,2.3,0,4.27.44,5.89,1.33,1.63.89,3.01,2.07,4.13,3.55,1.12,1.48,2,3.08,2.63,4.79l10.17-5.33c-.86-2.44-2.19-4.77-3.97-7.01s-4.09-4.08-6.92-5.53c-2.84-1.45-6.3-2.17-10.38-2.17s-7.95.77-11.41,2.32c-3.46,1.55-6.33,3.72-8.6,6.52-2.28,2.8-3.66,6.04-4.14,9.73-.41,3.23-.15,5.97.8,8.25s2.29,4.18,3.99,5.73c1.7,1.55,3.55,2.83,5.52,3.85,1.98,1.02,3.78,1.83,5.42,2.42,2.75,1.05,5.16,2.12,7.23,3.21,2.06,1.09,3.61,2.4,4.66,3.95,1.05,1.55,1.4,3.6,1.07,6.17-.36,2.7-1.63,4.91-3.83,6.62-2.19,1.71-4.87,2.57-8.03,2.57-2.63,0-4.93-.54-6.9-1.63-1.97-1.09-3.69-2.63-5.17-4.64-1.48-2.01-2.81-4.33-3.97-6.96l-9.48,6.02c1.1,3.16,2.76,6.09,4.97,8.79,2.22,2.7,4.95,4.86,8.19,6.47,3.24,1.61,6.91,2.42,10.99,2.42,2.97,0,5.87-.48,8.73-1.43,2.86-.95,5.49-2.3,7.89-4.05,2.4-1.74,4.39-3.9,5.98-6.47,1.58-2.57,2.59-5.46,3.01-8.69.4-3.03.23-5.66-.5-7.9-.73-2.24-1.84-4.2-3.33-5.88Z"/><polyline class="cls-1" points="1945.47 458.74 1941.15 457.61 1893.14 641 1897.46 642.13"/></g></svg>