<?xml version="1.0" encoding="UTF-8"?><svg id="Layer_2" xmlns="http://www.w3.org/2000/svg" viewBox="0 0 459.47 66.67"><defs><style>.cls-1{fill:#fff;}.cls-2{fill:#3bb44a;}</style></defs><g id="Layer_1-2"><path class="cls-1" d="M429.67,3.29h12.18v3.3h-4.21v6.31h-3.78v-6.31h-4.19v-3.3ZM443.06,3.29h5.74l2.47,5.23,2.47-5.23h5.72v9.61h-3.78v-6.14l-2.95,6.14h-3.14l-2.74-6.09v6.09h-3.78V3.29h0Z"/><path class="cls-1" d="M171.72,37.65c-5.61,0-10.19,2-10.19,8.57v19.08h-15.02v-18.89c0-6.71-2.9-8.77-8.7-8.77s-10.19,2-10.19,8.57v19.08h-15.09V26.54h15.09v6.38c4.19-4.84,9.61-7.67,16.96-7.67,6.64,0,12.7,2.71,15.41,9.67,4.38-6.06,10.25-9.67,18.5-9.67,9.03,0,17.02,5.03,17.02,18.7v21.34h-15.02v-18.89c0-6.71-2.97-8.77-8.77-8.77v.02Z"/><path class="cls-1" d="M201.12,45.96c0-12.7,11.02-20.7,28.17-20.7,18.05,0,28.5,8.19,28.5,23.66h-41.33c1.29,5.03,6.19,7.29,13.8,7.29,6.12,0,11.09-1.74,12.64-4.64h14.57c-3.09,9.99-11.54,15.09-28.11,15.02-17.28,0-28.3-8.06-28.24-20.63ZM242.38,41.77c-1.74-4.38-6.06-6.12-12.51-6.12-7.03,0-11.48,1.87-13.09,6.12h25.6Z"/><path class="cls-1" d="M304.66,57.76c-3.74,5.61-10.38,8.9-18.83,8.9-13.93,0-22.95-8.06-22.95-20.63s9.03-20.7,22.95-20.7c8.45,0,15.09,3.29,18.83,8.96V13.94h14.96v51.36h-14.96v-7.54ZM290.93,54.28c8.57,0,13.73-3.22,13.73-8.25s-5.16-8.32-13.73-8.32c-7.87,0-12.44,3.29-12.44,8.32s4.58,8.25,12.44,8.25h0Z"/><path class="cls-1" d="M327.22,13.94h14.89v8.9h-14.89v-8.9ZM327.22,26.56h14.89v38.75h-14.89V26.56Z"/><path class="cls-1" d="M348.37,53.7c0-10.32,10.9-13.28,21.98-13.28,6.32,0,12.31.77,17.6,2.13-.19-5.03-3.93-6.71-11.73-6.71-7.09,0-13.73,1.16-22.89,3.29l-1.81-10.64c8.57-1.87,17.79-3.22,27.53-3.22,16.31,0,23.92,5.48,23.92,19.86v20.18h-15.02v-5.09c-6.83,4.32-15.41,6.45-21.73,6.45-10.06,0-17.86-3.93-17.86-12.96h0ZM371.26,56.73c4.51,0,12.12-1.61,16.7-3.16v-3.22c-5.74-.9-10.7-1.61-15.54-1.61-6.25,0-8.45,1.23-8.45,4.19,0,2.26,2.19,3.8,7.29,3.8Z"/><path class="cls-1" d="M407.23,52.41h15.6c0,2.77,2.19,4.45,11.22,4.45,8.06,0,10.06-1.16,10.06-3.35,0-2.32-2.26-2.97-10.25-3.61l-3.35-.26c-15.22-1.22-22.37-2.97-22.37-11.48,0-9.99,10.96-12.89,24.89-12.89s24.43,3.55,25.08,13.02h-15.6c-.06-2.58-2.97-3.87-9.8-3.87s-9.22,1.1-9.22,2.84c0,1.87,1.74,2.51,9.35,3.09l4,.32c14.7,1.16,22.63,2.71,22.63,12.12,0,10.9-10.19,13.8-25.14,13.8-16.89,0-27.14-3.87-27.08-14.18h-.02Z"/><polygon class="cls-1" points="66.7 16.67 66.7 33.33 50.03 33.33 50.03 16.67 33.37 16.67 33.37 0 50.03 0 66.7 16.67"/><polygon class="cls-1" points="66.7 49.99 66.7 66.66 50.03 66.66 33.37 49.99 33.37 33.33 50.03 33.33 50.03 49.99 66.7 49.99"/><polygon class="cls-1" points="33.33 16.67 33.33 33.33 16.67 33.33 16.67 16.67 0 16.67 0 0 16.67 0 33.33 16.67"/><polygon class="cls-1" points="33.33 49.99 33.33 66.66 16.67 66.66 0 49.99 0 33.33 16.67 33.33 16.67 49.99 33.33 49.99"/><polygon class="cls-2" points="100.06 0 100.06 33.33 83.4 33.33 83.4 16.67 66.73 16.67 66.73 0 100.06 0"/><polygon class="cls-1" points="100.06 49.99 100.06 66.66 83.4 66.66 66.73 49.99 66.73 33.33 83.4 33.33 83.4 49.99 100.06 49.99"/></g></svg>