<?xml version="1.0" encoding="UTF-8"?><svg id="Layer_2" xmlns="http://www.w3.org/2000/svg" viewBox="0 0 425.52 354.48"><defs><style>.cls-1{fill:#39b54a;}</style></defs><g id="Layer_1-2"><path class="cls-1" d="M212.76,166.82c-31.93,0-57.82,25.89-57.82,57.82s25.89,57.82,57.82,57.82c5.1,0,10.04-.67,14.76-1.91-5.69-5.32-9.27-12.87-9.27-21.28,0-16.1,13.05-29.15,29.15-29.15,8.41,0,15.96,3.58,21.28,9.27,1.24-4.71,1.91-9.66,1.91-14.76,0-31.93-25.89-57.82-57.82-57.82Z"/><path class="cls-1" d="M368.6,156.87c-29.91-28.31-81.22-62.06-155.84-62.06-57.67,0-111.11,21.44-154.53,62-32.64,30.49-48.12,60.87-48.76,62.15-1.73,3.45-1.8,7.5-.18,11,.6,1.29,14.95,31.83,47.12,62.44,29.76,28.32,81.04,62.08,156.36,62.08,80.57,0,131.63-33.86,160.27-62.26,31.14-30.88,43.06-61.8,43.56-63.1,1.22-3.22,1.07-6.79-.4-9.9-.61-1.28-15.29-31.78-47.59-62.35ZM74.54,274.74c-21.27-20.06-34.05-40.4-39.39-49.89,5.68-9.52,19.21-29.98,41-50.17,9.34-8.65,19.08-16.26,29.19-22.87-14.14,20.78-22.41,45.86-22.41,72.83s8.95,53.98,24.11,75.21c-11.4-7.11-22.25-15.45-32.49-25.12ZM212.76,329.19c-57.64,0-104.54-46.9-104.54-104.54s46.9-104.54,104.54-104.54,104.54,46.9,104.54,104.54-46.9,104.54-104.54,104.54ZM354.43,275.04c-11.98,11.74-25.15,21.55-39.43,29.49,17.26-22.05,27.6-49.77,27.6-79.88,0-27.74-8.78-53.46-23.66-74.58,11.04,6.97,21.58,15.13,31.58,24.52,21.87,20.52,34.96,41.34,40.18,50.57-4.42,9.2-15.67,29.69-36.27,49.88Z"/><path class="cls-1" d="M212.76,68.64c8.38,0,15.17-6.79,15.17-15.17V15.17c0-8.38-6.79-15.17-15.17-15.17s-15.17,6.79-15.17,15.17v38.29c0,8.38,6.79,15.17,15.17,15.17Z"/><path class="cls-1" d="M420.5,69.31c-6.23-5.61-15.82-5.11-21.43,1.12l-25.62,28.46c-5.61,6.23-5.11,15.82,1.12,21.43,2.9,2.61,6.53,3.9,10.15,3.9,4.15,0,8.29-1.69,11.28-5.02l25.62-28.46c5.61-6.23,5.11-15.82-1.12-21.43Z"/><path class="cls-1" d="M40.8,124.22c3.62,0,7.25-1.29,10.15-3.9,6.23-5.61,6.73-15.2,1.12-21.43l-25.62-28.46c-5.61-6.23-15.2-6.73-21.43-1.12-6.23,5.61-6.73,15.2-1.12,21.43l25.62,28.46c3,3.33,7.13,5.02,11.28,5.02Z"/></g></svg>