<?xml version="1.0" encoding="UTF-8"?><svg id="Layer_2" xmlns="http://www.w3.org/2000/svg" viewBox="0 0 449.11 451.8"><defs><style>.cls-1{fill:#39b54a;}</style></defs><g id="Layer_1-2"><path class="cls-1" d="M371.43,124.32c-6.12,3.86-7.95,11.95-4.09,18.06,18.58,29.45,28.4,63.49,28.4,98.44,0,101.88-82.89,184.77-184.77,184.77S26.19,342.71,26.19,240.83,109.08,56.06,210.96,56.06c33.63,0,66.55,9.12,95.21,26.38,6.2,3.73,14.25,1.73,17.98-4.46,3.73-6.2,1.73-14.25-4.46-17.98-32.74-19.71-70.33-30.13-108.72-30.13C94.64,29.87,0,124.5,0,240.83s94.64,210.97,210.96,210.97,210.97-94.64,210.97-210.97c0-39.91-11.22-78.78-32.44-112.42-3.85-6.12-11.94-7.95-18.07-4.09Z"/><path class="cls-1" d="M210.96,121.32c16.85,0,33.11,3.43,48.31,10.2,6.6,2.94,14.35-.03,17.29-6.64,2.94-6.61-.03-14.35-6.64-17.29-18.58-8.27-38.42-12.46-58.96-12.46-80.34,0-145.71,65.36-145.71,145.71s65.37,145.71,145.71,145.71,145.71-65.36,145.71-145.71c0-22.12-4.84-43.38-14.4-63.18-3.14-6.52-10.98-9.25-17.48-6.11-6.52,3.14-9.25,10.97-6.11,17.49,7.83,16.23,11.8,33.66,11.8,51.81,0,65.9-53.61,119.51-119.51,119.51s-119.51-53.61-119.51-119.51,53.61-119.51,119.51-119.51Z"/><path class="cls-1" d="M399.7,49.38V0l-56.12,51.57v35.33l-85.1,85.07c-13.49-9.33-29.86-14.8-47.51-14.8-46.23,0-83.69,37.46-83.69,83.66s37.46,83.69,83.69,83.69,83.66-37.49,83.66-83.69c0-19.09-6.42-36.67-17.19-50.75l84.64-84.64,35.33.07,51.7-56.02-49.41-.1ZM255.6,232.48l-46.66,40.37c-2.46,2.13-5.5,3.21-8.55,3.21-3.34,0-6.65-1.28-9.17-3.73l-22.59-22.13c-5.17-5.04-5.27-13.36-.2-18.53,5.04-5.14,13.33-5.24,18.5-.2l13.98,13.69,37.52-32.48c5.47-4.75,13.75-4.16,18.5,1.31,4.71,5.47,4.13,13.75-1.34,18.5Z"/></g></svg>