<svg xmlns="http://www.w3.org/2000/svg" version="1.1" xmlns:xlink="http://www.w3.org/1999/xlink" width="1028.27" height="640.65"><svg xmlns="http://www.w3.org/2000/svg" version="1.1" xmlns:xlink="http://www.w3.org/1999/xlink" width="1028.27" height="640.65"><svg id="Layer_2" xmlns="http://www.w3.org/2000/svg" viewBox="0 0 1028.27 640.65"><defs><style>.cls-1{fill:#3bb44a;}</style></defs><g id="Layer_1-2"><path class="cls-1" d="M246.56,493.83h145.21c-1.36-3.4-2.64-7.11-3.8-10.67-7.7-23.45-11.71-48.83-12.09-75.84-.18-9.22.17-18.6.87-28.14l-130.19,114.64ZM396.09,493.83h0l-151.7,137.77H16.1c-5.12,0-9.38-2.1-12.74-6.47-3.19-4.37-4.14-9.38-2.72-14.88l16.06-62.09c1-3.88,2.77-7.6,5.29-11.16L350.86,234.79c9.62-8.73,16.31-16.01,19.78-21.99,3.51-6.14,6.23-12.94,8.19-20.54,2.43-9.38,2.84-17.79,1-24.9-1.64-7.28-4.69-13.42-9.2-18.27-4.67-4.85-10.15-8.41-16.69-11-6.42-2.43-13.45-3.72-20.81-3.72-8.32,0-16.43,1.62-24.67,5.01-8.04,3.23-15.78,7.76-22.68,13.42-6.91,5.66-13.1,12.29-18.35,19.57-5.13,7.44-8.85,15.04-10.86,22.8l-5.94,22.96c-1.17,4.53-4.06,8.89-8.75,13.42-4.65,4.37-10.36,6.63-17.08,6.63h-105.66c-6.88,0-11.03-1.94-12.62-5.66-1.76-3.72-2.04-7.6-.95-11.8l5.6-21.67c7.57-29.27,19.79-56.11,36.79-80.36,17.04-24.42,37.05-45.44,60.18-63.06,22.93-17.46,47.89-31.05,74.94-40.91,27.05-9.86,54.4-14.71,82.25-14.71s54.38,4.53,77.82,13.58c23.59,9.06,43.18,21.83,58.61,38.32,13.13,14.23,22.87,31.05,28.9,50.45,2.26-1.94,4.48-3.72,6.71-5.5,24.11-19.57,49.71-36.22,76.64-49.96,26.93-13.74,54.98-24.42,83.73-32.18,28.86-7.6,57.68-11.32,86.98-11.32s55.87,3.72,80.8,11.32c3.71,1.13,7.22,2.43,10.77,3.56-21.43,1.13-42.57,5.5-63.42,13.1-24.92,9.06-47.83,21.51-68.78,37.51-21.19,16.33-39.46,35.57-55.11,57.73-9.92,14.23-18.18,29.43-24.56,45.44,12.57,7.11,23.52,15.52,32.78,25.55,10.4,11.16,18.42,24.09,23.95,38.65h38.26c6.08,0,11.27-2.1,15.68-6.14,4.25-4.04,6.89-8.08,7.94-12.13l5.44-21.02c1.88-7.28,5.28-14.23,10.08-21.02,4.76-6.63,10.31-12.61,16.65-17.95,6.46-5.17,13.43-9.22,20.95-12.29,7.36-3.07,14.98-4.69,22.51-4.69,6.72,0,13.11,1.29,19.09,3.56,5.98,2.26,11.07,5.5,15.18,10.03,4.11,4.53,7.01,10.03,8.66,16.65,1.49,6.63,1.12,14.23-1.14,22.96-1.8,6.95-4.19,13.1-7.41,18.76-3.18,5.5-9.22,12.13-18.15,20.05l-301.21,276.99c-2.48,3.4-4.16,6.79-5.04,10.19l-14.76,57.08c-1.3,5.01-.39,9.54,2.57,13.58,3,3.88,6.98,5.82,11.78,5.82h223.49l-1.29.65c-26.97,13.91-54.87,24.58-83.89,32.18-28.82,7.44-57.8,11.16-86.62,11.16s-56.19-3.72-81.16-11.16c-24.77-7.6-47.31-18.27-67.08-32.18-4.77-3.23-9.29-6.79-13.65-10.35l149.61-129.68c9.7-8.41,19.36-17.3,28.63-26.52,9.31-9.38,18.15-19.4,26.35-30.08,8.2-10.67,15.29-21.99,21.79-34.12,6.34-12.13,11.44-25.06,15-38.81,6.9-26.68,7.69-50.77,2.68-72.28-5.16-21.51-14.81-39.94-28.97-55.14-14.2-15.04-31.96-26.84-53.68-35.09-21.56-8.25-45.29-12.45-71.22-12.45-3.84,0-7.73.16-11.61.32h-.32l-.68.16h-2.08l-.2.16h-1.76l-1,.16h-1.12l-.36.16h-1.12l-.52.16h-.96l-1,.16h-1.12l-.84.16h-.32l-.68.16h-.48l-.52.16h-.96l-.84.16h-.16l-1,.16h0l-1,.16h-.32l-.84.16h-.32l-.68.16h-.48l-.52.16h-.64l-.2.16-1,.16h0l-1,.16h-.16l-.84.16h-.32l-.68.16-1,.16h0l-.68.16h-.32l-.84.16h-.16l-1.04.32h0l-1,.16h-.16l-.84.16-.36.16h-.64l-.52.16-.52.16-.68.16h-.16l-1,.16-.04.16-1,.16h0l-1,.16-1.04.32-.36.16h-.64l-.52.16-.36.16-.84.16-.2.16-1,.16h0l-1.04.32h0l-.84.16-.36.16-.68.16-.52.16-.52.16-.68.16-.36.16-.68.16h-.16l-1.04.32h0l-1.04.32h-.16l-.72.32-.52.16-.52.16-.52.16-.52.16-.68.16-.2.16-1,.16-.04.16-1.04.32h0l-.88.32h-.32l-.72.32-.52.16-.52.16-.52.16-.36.16-.88.32h-.16l-.88.32h-.16l-.2.16h-.16l-.2.16h-.32l-.2.16h-.16l-.2.16h-.32l-.2.16h-.16l-.2.16h-.32l-.2.16h-.16l-.2.16h-.16l-.2.16h-.32l-.2.16h-.16l-.2.16h-.16l-.2.16h-.32l-.2.16h-.16l-.2.16h-.16l-.2.16h-.32l-.2.16h-.16l-.2.16h-.16l-.2.16h-.32l-.2.16h0c-21.79,8.73-42.05,20.21-60.82,34.6-21.15,16.17-39.42,35.41-55.11,57.73-15.49,22.15-26.81,46.73-33.76,73.57l-5.14,19.89c-1,3.88-.64,7.44.88,10.83,1.52,3.4,5.39,5.17,11.63,5.17h96.86c6.08,0,11.23-1.94,15.68-6.14,4.25-4.04,6.89-8.08,7.94-12.13l5.44-21.02c1.84-7.11,5.28-14.23,10.08-21.02,4.76-6.63,10.31-12.61,16.65-17.95,6.46-5.17,13.43-9.22,20.95-12.29,7.52-3.07,14.94-4.53,22.46-4.53,6.72,0,13.16,1.13,19.13,3.4,5.98,2.26,11.02,5.66,15.18,10.03,4.11,4.53,7.01,10.03,8.66,16.65,1.49,6.63,1.08,14.39-1.14,22.96-1.8,6.95-4.19,13.1-7.41,18.76-3.18,5.5-9.22,12.13-18.15,20.05l-138.72,125.96ZM1027.73,224.92c.19,4.2.35,8.57.5,12.94.5,27.17-3.14,55.46-10.66,84.57-7.61,29.43-18.61,57.73-33.16,84.89-12.01,22.31-25.78,43.34-41.17,63.22h-163.94l168.3-148.12c9.7-8.41,19.2-17.3,28.63-26.52,9.31-9.38,18.15-19.4,26.35-30.08,8.2-10.67,15.29-21.99,21.79-34.12,1.23-2.26,2.29-4.53,3.36-6.79h0Z"></path></g></svg></svg><style>@media (prefers-color-scheme: light) { :root { filter: none; } }
@media (prefers-color-scheme: dark) { :root { filter: none; } }
</style></svg>