<?xml version="1.0" encoding="UTF-8"?><svg id="Layer_2" xmlns="http://www.w3.org/2000/svg" viewBox="0 0 37.68 48.75"><defs><style>.cls-1{fill:#39b54a;}</style></defs><g id="Layer_1-2"><path class="cls-1" d="M28.25,8.25c-1.33-1.24-2.85-2.19-4.53-2.83-1.57-.6-3.22-.91-4.89-.91-.18,0-.36,0-.54.01-3.58.14-6.92,1.64-9.4,4.22-2.49,2.59-3.87,6-3.87,9.59,0,3.13,1.07,6.19,3,8.62.42.53.83,1.12,1.25,1.8l.15.25c1.17,1.93,1.97,4.15,2.37,6.59.36,2.17,1.08,3.39,1.66,4.05,0,.01,0,.02,0,.03v5.26c0,1.1.9,2,2,2h.49v.09c0,.96.78,1.73,1.73,1.73h2.32c.96,0,1.73-.78,1.73-1.73v-.09h.82c.92,0,1.67-.75,1.67-1.67v-5.58s0-.02,0-.03c.64-.72,1.4-2.06,1.73-4.49.26-1.96.87-3.76,1.81-5.34.1-.17.2-.33.29-.48.54-.88,1.17-1.71,1.72-2.42,1.97-2.54,2.99-5.75,2.89-9.02-.06-1.86-.48-3.65-1.27-5.34-.76-1.62-1.81-3.07-3.13-4.3ZM20.26,46.93v.09c0,.14-.11.26-.26.26h-2.32c-.14,0-.26-.11-.26-.26v-.09h2.83ZM22.74,43.66v1.6c0,.11-.09.19-.19.19h-7.1c-.29,0-.52-.23-.52-.52v-1.28h7.81ZM22.74,40.41v1.77h-7.81v-1.77h7.81ZM22.83,38.94h-1.72l.52-5.93,2.11-3.27c.22-.34.12-.8-.22-1.02-.12-.08-.26-.12-.4-.12-.25,0-.48.13-.62.34l-2.21,3.42c-.07.1-.11.22-.12.34l-.55,6.24h-1.51l-.55-6.24c-.01-.12-.05-.24-.12-.34l-2.21-3.42c-.14-.21-.37-.34-.62-.34-.14,0-.28.04-.4.12-.34.22-.44.68-.22,1.02l2.11,3.27.52,5.93h-1.79c-.32-.25-1.19-1.15-1.6-3.59-.43-2.63-1.29-5.02-2.56-7.11l-.16-.27c-.45-.73-.9-1.36-1.35-1.93-1.73-2.18-2.68-4.91-2.68-7.71,0-6.66,5.21-12.08,11.85-12.34.16,0,.33,0,.49,0,3.11,0,6.1,1.19,8.41,3.35,2.44,2.27,3.83,5.33,3.94,8.61.09,2.93-.83,5.8-2.58,8.07-.57.74-1.24,1.61-1.81,2.56-.1.16-.2.32-.3.49-1.04,1.75-1.71,3.73-2,5.89-.37,2.74-1.32,3.72-1.65,3.98Z"/><path class="cls-1" d="M36.98,8.9c.07-.19.06-.39-.03-.56-.12-.26-.38-.42-.67-.42-.11,0-.22.02-.32.07l-3.68,1.75c-.37.17-.52.62-.35.98.12.26.38.42.67.42.11,0,.22-.02.32-.07l3.68-1.75c.18-.08.31-.23.38-.42Z"/><path class="cls-1" d="M36.94,16.93h-2.46c-.41,0-.74.33-.74.74s.33.74.74.74h2.46c.41,0,.74-.33.74-.74s-.33-.74-.74-.74Z"/><path class="cls-1" d="M27.54,5.75c.25,0,.47-.12.61-.32l1.38-2.03c.23-.34.14-.8-.19-1.03-.12-.08-.27-.13-.42-.13-.24,0-.47.12-.61.32l-1.38,2.03c-.11.16-.15.36-.11.55.04.19.15.36.31.47.12.08.27.13.42.13Z"/><path class="cls-1" d="M5.75,10.73c.17-.37.02-.81-.35-.98l-3.68-1.75c-.1-.05-.21-.07-.32-.07-.28,0-.55.17-.67.42-.17.37-.02.81.35.98l3.68,1.75c.1.05.21.07.32.07.28,0,.55-.17.67-.42Z"/><path class="cls-1" d="M3.2,16.93H.74c-.41,0-.74.33-.74.74s.33.74.74.74h2.46c.41,0,.74-.33.74-.74s-.33-.74-.74-.74Z"/><path class="cls-1" d="M9.53,5.42c.14.2.37.32.61.32.15,0,.29-.04.41-.13.16-.11.27-.28.31-.47.04-.19,0-.39-.11-.55l-1.38-2.03c-.14-.2-.37-.32-.61-.32-.15,0-.29.04-.41.13-.34.23-.42.69-.2,1.03l1.38,2.03Z"/><path class="cls-1" d="M19.05,3.63c.41,0,.74-.33.74-.74V.74c0-.41-.33-.74-.74-.74s-.74.33-.74.74v2.15c0,.41.33.74.74.74Z"/><path class="cls-1" d="M15.4,22.08c.13.1.28.15.44.15.23,0,.45-.11.59-.3.12-.16.17-.35.14-.55-.03-.2-.13-.37-.29-.49-.16-.12-.3-.36-.37-.65-.08-.33-.38-.56-.72-.56-.06,0-.12,0-.18.02-.4.1-.64.5-.54.9.16.62.48,1.14.92,1.47Z"/><path class="cls-1" d="M13.73,22.35c-.19.03-.36.14-.48.3-.11.16-.16.36-.12.55.11.64.45,1.2.9,1.51.12.08.26.13.41.13.25,0,.47-.12.61-.32.11-.16.15-.36.11-.55-.04-.19-.15-.36-.31-.47-.1-.07-.23-.27-.28-.54-.06-.35-.37-.61-.73-.61-.04,0-.08,0-.13.01Z"/><path class="cls-1" d="M13.19,20.06c.14,0,.27-.04.39-.11.35-.21.45-.67.24-1.02-.04-.07-.13-.36-.03-.86.08-.4-.18-.79-.58-.87-.05,0-.1-.01-.15-.01-.35,0-.66.25-.72.59-.15.75-.07,1.45.22,1.92.14.22.37.35.63.35Z"/><path class="cls-1" d="M15.85,16.56c.43-.01.75-.36.74-.76,0-.14,0-.43.14-.68.19-.36.05-.81-.31-1-.11-.06-.22-.08-.34-.08-.28,0-.53.15-.65.4-.29.56-.32,1.13-.31,1.42.01.4.34.71.74.71Z"/><path class="cls-1" d="M26.98,24.31c.09-.27.12-.58.09-.94,0-.1-.03-.21-.05-.32.16-.23.28-.48.37-.75.17-.52.19-1.07.05-1.56.39-.67.58-1.21.58-1.68,0-.55-.14-1.08-.41-1.57.26-.52.29-1.16.11-1.79-.14-.49-.4-.93-.76-1.26.02-.13.03-.26.03-.36,0-.9-.44-1.73-1.2-2.29-.08-.5-.36-1.03-.78-1.45-.34-.34-.76-.6-1.21-.73-.76-.93-1.72-1.41-2.78-1.41-.84,0-1.51.27-1.97.79-.46-.52-1.13-.79-1.97-.79-1.07,0-2.03.49-2.77,1.41-.46.14-.88.4-1.23.74-.42.42-.7.95-.8,1.48-.75.52-1.19,1.35-1.19,2.25,0,.11.01.23.03.39-.35.31-.62.75-.76,1.24-.18.63-.15,1.28.09,1.83-.26.46-.4.98-.4,1.53,0,.46.19,1.01.58,1.68-.13.49-.11,1.04.05,1.56.09.27.21.52.37.75-.02.11-.04.21-.05.32-.03.35,0,.66.09.94.3.88,1.06,1.56,2.04,1.83.21.06.42.1.63.11.21.02.39.12.52.28.58.72,1.53,1.15,2.53,1.15.87,0,1.66-.33,2.2-.9.54.57,1.34.9,2.2.9,1,0,1.95-.43,2.53-1.15.13-.16.32-.26.52-.28.21-.02.43-.06.63-.11.98-.27,1.74-.95,2.04-1.83ZM25.57,23.34c.01.06.02.12.03.17.02.2,0,.29-.02.32-.14.41-.54.75-1.04.88-.12.03-.25.06-.37.07-.61.05-1.15.35-1.54.82-.3.38-.82.6-1.39.6-.86,0-1.46-.52-1.46-1.26v-.29c0-1.17.64-1.38.66-1.39l-.09-.36.08-.02.27-.07-.17-.71-.09-.36-.36.09s-.14.04-.3.11v-2.78s.03-.09.04-.15c.05-.85.71-1.17.74-1.19.37-.17.53-.6.37-.97-.12-.27-.38-.44-.68-.44-.1,0-.2.02-.3.06-.01,0-.08.04-.17.09v-3.05s.08,0,.12,0c.3,0,.57-.18.68-.46.07-.18.07-.38,0-.57-.08-.18-.22-.32-.4-.4,0,0-.34-.16-.36-.53,0-.06-.02-.12-.03-.19.02-1.7.74-1.7,1.23-1.7.62,0,1.15.28,1.62.86.19.23.44.4.73.49.22.07.43.19.6.37.2.2.34.45.38.68.04.22.14.41.28.59-.11-.06-.24-.1-.37-.1-.12,0-.25.03-.36.09-.36.2-.49.65-.29,1,.1.19.16.45.15.7-.01.41.31.75.71.76h0c.43,0,.75-.31.76-.71.01-.3-.02-.88-.32-1.44,0,0,0,0,.01.01.38.27.59.67.59,1.09,0,.03,0,.08-.02.16-.07.46.09.94.44,1.27.16.16.29.37.36.61.08.29.07.59-.03.82-.19.42-.17.89.05,1.27.15.27.23.56.23.85,0,.14-.1.46-.38.94-.2.34-.26.74-.15,1.11.06.22.05.48-.03.74-.04.14-.11.26-.19.38-.23.33-.31.73-.22,1.11ZM12.3,22.23c-.08-.11-.14-.24-.19-.38-.08-.25-.09-.52-.03-.74.1-.36.05-.77-.15-1.11-.28-.48-.38-.8-.38-.94,0-.29.08-.58.23-.85.22-.39.23-.85.05-1.27-.1-.23-.11-.53-.03-.82.07-.24.19-.45.36-.61.35-.33.51-.81.44-1.27-.01-.09-.02-.14-.02-.17,0-.42.22-.82.59-1.09,0,0,0,0,0-.01-.3.56-.33,1.14-.32,1.44.01.4.34.71.74.71.22,0,.41-.09.54-.23.13-.14.2-.33.2-.53,0-.25.05-.52.15-.7.2-.36.07-.81-.29-1-.11-.06-.23-.09-.36-.09-.13,0-.26.04-.37.1.13-.18.24-.38.28-.59.04-.24.18-.48.38-.68.18-.17.38-.3.6-.37.29-.09.55-.26.73-.49.46-.58.99-.86,1.62-.86.48,0,1.21,0,1.23,1.7-.02.06-.03.12-.04.19-.02.38-.36.53-.37.54-.36.15-.54.58-.39.96.11.28.38.46.68.46.04,0,.08,0,.12,0v3.05c-.08-.05-.15-.08-.17-.09-.1-.04-.2-.06-.3-.06-.29,0-.55.17-.67.44-.17.37,0,.81.37.98.03.01.69.33.74,1.19v.1s.04.05.04.05v2.78c-.16-.07-.27-.1-.3-.11l-.36-.09-.09.36-.09.35-.09.35-.09.36.35.1s.66.21.66,1.39v.29c0,.74-.6,1.26-1.46,1.26-.56,0-1.08-.22-1.39-.6-.39-.48-.93-.77-1.54-.82-.12-.01-.25-.03-.37-.07-.5-.14-.9-.48-1.04-.88,0-.03-.04-.12-.02-.32,0-.06.01-.11.03-.17.09-.38,0-.78-.22-1.11Z"/><path class="cls-1" d="M23.61,20.61c.1-.39-.14-.8-.53-.9-.06-.02-.12-.02-.18-.02-.34,0-.63.23-.72.56-.07.29-.21.53-.37.65-.16.12-.26.29-.29.49-.03.2.02.39.14.55.14.19.36.3.59.3.16,0,.31-.05.44-.15.43-.33.76-.85.92-1.47Z"/><path class="cls-1" d="M24.37,22.35s-.08-.01-.13-.01c-.36,0-.67.26-.73.61-.05.28-.18.48-.28.54-.16.11-.27.28-.31.47-.04.19,0,.39.11.55.14.2.37.32.61.32.15,0,.29-.04.42-.13.45-.31.79-.87.9-1.51.07-.4-.2-.78-.6-.85Z"/><path class="cls-1" d="M25.76,17.78c-.07-.34-.37-.59-.72-.59-.05,0-.1,0-.15.01-.4.08-.66.47-.58.87.1.5,0,.79-.03.86-.21.35-.1.8.24,1.02.12.07.25.11.39.11.26,0,.49-.13.63-.35.29-.47.37-1.17.22-1.92Z"/><path class="cls-1" d="M22.22,16.56h0c.43,0,.75-.31.76-.71,0-.29-.02-.86-.31-1.42-.13-.24-.38-.4-.65-.4-.12,0-.24.03-.34.08-.36.19-.5.64-.31,1,.14.27.15.57.14.68-.01.41.31.75.71.76Z"/></g></svg>