<?xml version="1.0" encoding="UTF-8"?><svg id="Layer_2" xmlns="http://www.w3.org/2000/svg" viewBox="0 0 48 43.32"><defs><style>.cls-1{fill:#39b54a;}</style></defs><g id="Layer_1-2"><path class="cls-1" d="M47.88,42.19l-5.94-8.93V11.98c0-.4-.32-.72-.72-.72h-1.62c-.4,0-.72.32-.72.72s.32.72.72.72h.9v20.04H7.39V12.71h1.14c.4,0,.72-.32.72-.72s-.32-.72-.72-.72h-1.86c-.4,0-.72.32-.72.72v21.28L.12,42.2c-.15.22-.16.51-.03.74.13.23.37.38.64.38h46.55c.27,0,.51-.15.64-.38.13-.24.11-.52-.04-.74ZM2.06,41.87l5-7.67h33.77l5.1,7.67H2.06Z"/><path class="cls-1" d="M11.05,26.92h25.9c.37,0,.68-.3.68-.68v-15.59s0,0,0,0c0-.05,0-.1-.02-.14,0,0,0,0,0,0-.01-.05-.03-.09-.05-.13,0-.02-.02-.03-.03-.04-.01-.02-.02-.04-.04-.07,0,0,0,0-.01-.01-.01-.02-.03-.03-.04-.04-.02-.02-.04-.04-.06-.06,0,0,0-.01-.01-.01l-1.84-1.47c-.29-.23-.72-.19-.95.11-.23.29-.19.72.11.95l1.14.91-11.52,8.28c-.18.13-.43.13-.62,0l-11.52-8.28,1.08-.86c.29-.23.34-.66.11-.95-.23-.29-.66-.34-.95-.11l-1.78,1.42s0,.01-.01.01c-.02.02-.04.04-.06.06-.01.01-.03.03-.04.04,0,0,0,0-.01.01-.01.02-.03.04-.04.07,0,.02-.02.03-.03.04-.02.04-.04.09-.05.13,0,0,0,0,0,0-.01.05-.02.09-.02.14,0,0,0,0,0,0v15.59c0,.37.3.68.68.68ZM24,20.35c.38,0,.77-.12,1.1-.35l1.09-.78,2.66,1.78c.12.08.25.11.37.11.22,0,.43-.11.56-.3.21-.31.12-.73-.19-.94l-2.24-1.49,8.91-6.4v13.59H11.73v-13.59l8.79,6.32-2.68,1.56c-.32.19-.43.6-.25.92.13.22.35.34.59.34.12,0,.23-.03.34-.09l3.21-1.86,1.18.85c.33.24.71.35,1.1.35Z"/><path class="cls-1" d="M15.2,12.62c.37,0,.68-.3.68-.68V3.33h16.25v8.62c0,.37.3.68.68.68s.68-.3.68-.68V2.65c0-.37-.3-.68-.68-.68h-5.62s0,0,0,0l-1.96-1.57s-.02-.02-.03-.02c-.71-.51-1.66-.51-2.37,0-.01,0-.02.01-.03.02l-1.93,1.54s-.02.02-.03.03h-5.62c-.37,0-.68.3-.68.68v9.29c0,.37.3.68.68.68ZM23.61,1.47c.23-.16.54-.16.78,0l.63.5h-2.04l.63-.5Z"/><path class="cls-1" d="M18.18,6.35h5.32c.37,0,.68-.3.68-.68s-.3-.68-.68-.68h-5.32c-.37,0-.68.3-.68.68s.3.68.68.68Z"/><path class="cls-1" d="M29.53,8h-11.36c-.37,0-.68.3-.68.68s.3.68.68.68h11.36c.37,0,.68-.3.68-.68s-.3-.68-.68-.68Z"/><path class="cls-1" d="M30.21,11.68c0-.37-.3-.68-.68-.68h-11.36c-.37,0-.68.3-.68.68s.3.68.68.68h11.36c.37,0,.68-.3.68-.68Z"/><path class="cls-1" d="M21.42,14c-.37,0-.68.3-.68.68s.3.68.68.68h5.32c.37,0,.68-.3.68-.68s-.3-.68-.68-.68h-5.32Z"/><path class="cls-1" d="M9.59,39.44h-2.59c-.4,0-.72.32-.72.72s.32.72.72.72h2.59c.4,0,.72-.32.72-.72s-.32-.72-.72-.72Z"/><path class="cls-1" d="M35.77,39.44H12.23c-.4,0-.72.32-.72.72s.32.72.72.72h23.54c.4,0,.72-.32.72-.72s-.32-.72-.72-.72Z"/><path class="cls-1" d="M38.41,39.44c-.4,0-.72.32-.72.72s.32.72.72.72h2.59c.4,0,.72-.32.72-.72s-.32-.72-.72-.72h-2.59Z"/><path class="cls-1" d="M10.69,37h-2.4c-.4,0-.72.32-.72.72s.32.72.72.72h2.4c.4,0,.72-.32.72-.72s-.32-.72-.72-.72Z"/><path class="cls-1" d="M13.13,38.45h2.4c.4,0,.72-.32.72-.72s-.32-.72-.72-.72h-2.4c-.4,0-.72.32-.72.72s.32.72.72.72Z"/><path class="cls-1" d="M17.97,38.45h2.4c.4,0,.72-.32.72-.72s-.32-.72-.72-.72h-2.4c-.4,0-.72.32-.72.72s.32.72.72.72Z"/><path class="cls-1" d="M22.8,38.45h2.4c.4,0,.72-.32.72-.72s-.32-.72-.72-.72h-2.4c-.4,0-.72.32-.72.72s.32.72.72.72Z"/><path class="cls-1" d="M27.64,37c-.4,0-.72.32-.72.72s.32.72.72.72h2.4c.4,0,.72-.32.72-.72s-.32-.72-.72-.72h-2.4Z"/><path class="cls-1" d="M31.75,37.72c0,.4.32.72.72.72h2.4c.4,0,.72-.32.72-.72s-.32-.72-.72-.72h-2.4c-.4,0-.72.32-.72.72Z"/><path class="cls-1" d="M40.43,37.72c0-.4-.32-.72-.72-.72h-2.4c-.4,0-.72.32-.72.72s.32.72.72.72h2.4c.4,0,.72-.32.72-.72Z"/><path class="cls-1" d="M9.59,36.34h2.2c.4,0,.72-.32.72-.72s-.32-.72-.72-.72h-2.2c-.4,0-.72.32-.72.72s.32.72.72.72Z"/><path class="cls-1" d="M14.03,36.34h2.2c.4,0,.72-.32.72-.72s-.32-.72-.72-.72h-2.2c-.4,0-.72.32-.72.72s.32.72.72.72Z"/><path class="cls-1" d="M18.46,36.34h2.2c.4,0,.72-.32.72-.72s-.32-.72-.72-.72h-2.2c-.4,0-.72.32-.72.72s.32.72.72.72Z"/><path class="cls-1" d="M22.9,36.34h2.2c.4,0,.72-.32.72-.72s-.32-.72-.72-.72h-2.2c-.4,0-.72.32-.72.72s.32.72.72.72Z"/><path class="cls-1" d="M27.34,36.34h2.2c.4,0,.72-.32.72-.72s-.32-.72-.72-.72h-2.2c-.4,0-.72.32-.72.72s.32.72.72.72Z"/><path class="cls-1" d="M31.77,36.34h2.2c.4,0,.72-.32.72-.72s-.32-.72-.72-.72h-2.2c-.4,0-.72.32-.72.72s.32.72.72.72Z"/><path class="cls-1" d="M36.21,36.34h2.2c.4,0,.72-.32.72-.72s-.32-.72-.72-.72h-2.2c-.4,0-.72.32-.72.72s.32.72.72.72Z"/></g></svg>