<?xml version="1.0" encoding="UTF-8"?><svg id="Layer_2" xmlns="http://www.w3.org/2000/svg" viewBox="0 0 48.5 48.5"><defs><style>.cls-1{fill:#39b54a;}</style></defs><g id="Layer_1-2"><path class="cls-1" d="M41.81,2.34c-2.4,0-4.35,1.95-4.35,4.35s1.95,4.35,4.35,4.35,4.35-1.95,4.35-4.35-1.95-4.35-4.35-4.35ZM44.49,6.69c0,1.48-1.2,2.68-2.68,2.68s-2.68-1.2-2.68-2.68,1.2-2.68,2.68-2.68,2.68,1.2,2.68,2.68Z"/><path class="cls-1" d="M46.49,0h-9.37c-1.11,0-2.01.9-2.01,2.01v45.66c0,.46.37.84.84.84h11.71c.46,0,.84-.38.84-.84V2.01c0-1.11-.9-2.01-2.01-2.01ZM36.79,18.73V2.01c0-.18.15-.33.34-.33h9.37c.19,0,.34.15.34.33v16.73h-10.04ZM36.79,28.1v-7.7h10.04v7.7h-10.04ZM36.79,37.46v-7.7h10.04v7.7h-10.04ZM36.79,46.83v-7.69h10.04v7.69h-10.04Z"/><path class="cls-1" d="M33.2,28.37c.13.07.27.11.42.11.3,0,.57-.16.72-.42.23-.4.09-.91-.31-1.14l-7.28-4.19,3.85-6.68,2.59,1.5c.13.08.27.12.42.12.29,0,.57-.16.72-.42.11-.19.14-.42.09-.63-.06-.22-.19-.4-.39-.51l-2.59-1.5,2.9-5.02c.11-.19.14-.42.08-.63-.06-.22-.2-.4-.39-.51-.13-.07-.27-.11-.42-.11-.3,0-.57.16-.72.42l-17.38,30.09c-.11.2-.14.42-.08.64.06.21.2.4.39.5l10.16,5.85c.14.07.28.11.42.11.3,0,.57-.16.72-.42l7.21-12.5c.11-.19.14-.42.08-.63-.06-.22-.2-.4-.39-.51-.13-.07-.27-.11-.42-.11-.3,0-.58.16-.73.42l-2.11,3.66-8.71-5.03,3.84-6.65,7.28,4.19ZM17.38,38.95l3.85-6.68,8.71,5.03-3.85,6.67-8.71-5.02Z"/><path class="cls-1" d="M22.55,25.26c.06-.22.03-.44-.08-.63-.15-.26-.43-.42-.72-.42-.15,0-.29.04-.42.11l-3.66,2.11-5.03-8.71,6.66-3.85,4.19,7.28c.15.26.43.42.73.42.15,0,.29-.04.42-.11.4-.23.54-.74.31-1.14l-4.2-7.28,6.68-3.85,1.48,2.58c.15.26.43.42.73.42.15,0,.29-.04.42-.11.19-.11.33-.29.39-.5s.03-.44-.08-.63l-1.48-2.58,5.16-2.98c.19-.11.33-.29.39-.51.06-.22.03-.44-.08-.63-.15-.26-.43-.42-.72-.42-.15,0-.29.04-.42.11L2.97,21.37c-.4.23-.54.74-.31,1.14l5.85,10.16c.15.26.42.42.72.42.14,0,.29-.04.42-.11l12.51-7.21c.19-.11.33-.29.39-.51ZM16.23,27.26l-6.68,3.85-5.02-8.71,6.67-3.85,5.03,8.71Z"/><path class="cls-1" d="M33.62,0H.84c-.46,0-.84.38-.84.84v11.71c0,.46.37.84.84.84h14.4c.46,0,.84-.38.84-.84s-.37-.83-.84-.83h-4.2V1.67h7.7v8.37c0,.46.37.84.84.84s.84-.38.84-.84V1.67h7.7v2.98c0,.46.37.83.84.83s.84-.37.84-.83V1.67h3.85c.46,0,.84-.38.84-.84s-.37-.84-.84-.84ZM1.67,11.71V1.67h7.7v10.04H1.67Z"/></g></svg>