<?xml version="1.0" encoding="UTF-8"?><svg id="Layer_2" xmlns="http://www.w3.org/2000/svg" viewBox="0 0 48 47.92"><defs><style>.cls-1{fill:#39b54a;}</style></defs><g id="Layer_1-2"><path class="cls-1" d="M11.47,4.62c.42,0,.76-.34.76-.76,0-1.28,1.04-2.32,2.32-2.32h17.55c1.28,0,2.32,1.04,2.32,2.32v9.03c0,.42.34.76.76.76s.76-.34.76-.76V3.85c0-2.12-1.73-3.85-3.85-3.85H14.56c-2.12,0-3.85,1.73-3.85,3.85,0,.42.34.76.76.76Z"/><path class="cls-1" d="M35.19,34.36c-.42,0-.76.34-.76.76v4.6H12.23v-14.03c0-.42-.34-.76-.76-.76s-.76.34-.76.76v18.37c0,2.12,1.73,3.85,3.85,3.85h17.55c2.12,0,3.85-1.73,3.85-3.85v-8.94c0-.42-.34-.76-.76-.76ZM32.11,46.39H14.56c-1.28,0-2.32-1.04-2.32-2.32v-2.82h22.2v2.82c0,1.28-1.04,2.32-2.32,2.32Z"/><path class="cls-1" d="M24.52,43.01h-2.37c-.42,0-.76.34-.76.76s.34.76.76.76h2.37c.42,0,.76-.34.76-.76s-.34-.76-.76-.76Z"/><path class="cls-1" d="M14.96,25.21c.16,0,.31-.05.44-.14.26-.19.38-.52.29-.83l-.65-2.28h3.34c1.57,0,2.84-1.27,2.84-2.84v-10.47c0-1.57-1.27-2.84-2.84-2.84H2.84c-1.57,0-2.84,1.27-2.84,2.84v10.47c0,1.57,1.27,2.84,2.84,2.84h7.25l4.43,3.11c.13.09.29.14.44.14ZM13.3,21.41l.34,1.18-2.87-2.01c-.13-.09-.28-.14-.44-.14H2.84c-.72,0-1.31-.59-1.31-1.31v-10.47c0-.72.59-1.31,1.31-1.31h15.55c.72,0,1.31.59,1.31,1.31v10.47c0,.72-.59,1.31-1.31,1.31h-4.35c-.24,0-.47.11-.61.3-.14.19-.19.44-.12.67Z"/><path class="cls-1" d="M45.16,15.03h-17.45c-1.57,0-2.84,1.27-2.84,2.84v10.11c0,1.57,1.27,2.84,2.84,2.84h4.31v2.53c0,.29.17.56.44.69.1.05.22.07.33.07.17,0,.34-.06.48-.17l3.85-3.12h8.04c1.57,0,2.84-1.27,2.84-2.84v-10.11c0-1.57-1.27-2.84-2.84-2.84ZM46.47,27.97c0,.72-.59,1.31-1.31,1.31h-8.31c-.18,0-.35.06-.48.17l-2.81,2.28v-1.69c0-.42-.34-.76-.76-.76h-5.07c-.72,0-1.31-.59-1.31-1.31v-10.11c0-.72.59-1.31,1.31-1.31h17.45c.72,0,1.31.59,1.31,1.31v10.11Z"/><path class="cls-1" d="M22.75,2.95c-.42,0-.76.34-.76.76s.34.76.76.76h1.16c.42,0,.76-.34.76-.76s-.34-.76-.76-.76h-1.16Z"/><path class="cls-1" d="M39.45,19.04l-6.68,6.68c-.3.3-.3.78,0,1.08.15.15.34.22.54.22s.39-.07.54-.22l6.68-6.68c.3-.3.3-.78,0-1.08-.3-.3-.78-.3-1.08,0Z"/><path class="cls-1" d="M33.8,21.78c.71,0,1.28-.58,1.28-1.28s-.58-1.28-1.28-1.28-1.28.57-1.28,1.28.57,1.28,1.28,1.28Z"/><path class="cls-1" d="M6.25,12.55c-.71,0-1.28.57-1.28,1.28s.57,1.28,1.28,1.28,1.28-.57,1.28-1.28-.57-1.28-1.28-1.28Z"/><path class="cls-1" d="M10.61,12.55c-.71,0-1.28.57-1.28,1.28s.57,1.28,1.28,1.28,1.28-.57,1.28-1.28-.57-1.28-1.28-1.28Z"/><path class="cls-1" d="M14.98,15.12c.71,0,1.28-.57,1.28-1.28s-.57-1.28-1.28-1.28-1.28.57-1.28,1.28.58,1.28,1.28,1.28Z"/><path class="cls-1" d="M38.94,24.07c-.71,0-1.28.57-1.28,1.28s.57,1.28,1.28,1.28,1.28-.57,1.28-1.28-.58-1.28-1.28-1.28Z"/></g></svg>