<?xml version="1.0" encoding="UTF-8"?><svg id="Layer_2" xmlns="http://www.w3.org/2000/svg" viewBox="0 0 38.21 48"><defs><style>.cls-1{fill:#39b54a;}</style></defs><g id="Layer_1-2"><path class="cls-1" d="M10.98,17.36h-2.07c-.42,0-.76.34-.76.76s.34.76.76.76h2.05l.08,6.62h-2.13c-.42,0-.76.34-.76.76s.34.76.76.76h2.2c.06.22.17.42.33.59.26.27.61.43.98.43,0,0,.01,0,.02,0l2.18-.04c.37,0,.73-.17.99-.46.15-.17.25-.36.31-.58.6-.05,1.51-.09,2.2.03.61.11,1.25.16,1.9.16h6.18c1.48,0,2.69-1.21,2.69-2.69v-7.04c0-.72-.28-1.39-.79-1.9-.51-.51-1.18-.79-1.9-.79h-2.62c.51-.71,1.03-1.66,1.2-2.74.11-.69.19-1.42.22-2.15.03-.64-.2-1.27-.64-1.73-.45-.47-1.05-.73-1.69-.73-1.14,0-2.1.81-2.3,1.93-.3,1.68-.82,2.89-1.43,3.33-.36.25-.64.42-.89.56-.53.3-1.03.59-1.19,1.32-.17.78-.53,1.73-1.28,2.21-.03-.04-.06-.08-.09-.12-.26-.28-.63-.43-1-.43l-2.18.04c-.64,0-1.18.48-1.32,1.11ZM18.34,14.88s.01-.04.01-.04c.04-.05.27-.19.45-.29.27-.15.6-.34,1.01-.64.98-.69,1.67-2.14,2.05-4.31.07-.39.41-.67.8-.67.22,0,.43.09.59.25.16.16.23.38.22.6-.03.68-.1,1.35-.21,1.99-.28,1.74-1.87,3.15-1.89,3.17-.21.18-.3.46-.25.73v2.98c0,1.37-.82,2.6-2.08,3.12l-.54.23c-.39.16-.57.61-.41,1,.12.29.41.47.71.47.1,0,.2-.02.29-.06l.54-.23c1.84-.76,3.02-2.54,3.02-4.53v-2.37h3.54c.31,0,.6.12.82.34.22.22.34.51.34.82v7.04c0,.64-.52,1.16-1.16,1.16h-6.18c-.56,0-1.11-.05-1.64-.14-.81-.14-1.76-.11-2.41-.06l-.08-7.13c1.22-.51,2.08-1.71,2.46-3.43ZM14.35,17.74l.1,8.75-1.87.03-.1-8.75,1.87-.03Z"/><path class="cls-1" d="M21.92,43.22c.13,0,.26-.03.38-.1l15.52-8.81c.37-.21.5-.67.29-1.04-.21-.37-.67-.5-1.04-.29l-15.34,8.71h-6.49v-3.26h6.7c.13,0,.25-.03.36-.09l15.52-8.41c.37-.2.51-.66.31-1.03-.2-.37-.66-.51-1.04-.31l-15.35,8.31h-6.5v-2.65h6.7c.12,0,.24-.03.35-.08l15.53-7.94c.31-.16.48-.52.39-.86-.08-.34-.39-.58-.74-.58h-6.45c-.42,0-.76.34-.76.76s.34.76.76.76h3.28l-12.54,6.41H4.35l5.56-2.51c.38-.17.56-.63.38-1.01-.17-.38-.63-.56-1.01-.38L.49,32.8c-.33.15-.51.5-.43.86s.39.6.75.6h6.48v2.65H.76c-.42,0-.76.34-.76.76s.34.76.76.76h6.52v3.26H.76c-.42,0-.76.34-.76.76s.34.76.76.76h6.52v3.26H.76c-.42,0-.76.34-.76.76s.34.76.76.76h21.15c.13,0,.26-.03.38-.1l15.51-8.91c.37-.21.49-.68.28-1.04-.21-.37-.68-.49-1.04-.28l-15.33,8.81h-6.49v-3.26h6.7ZM8.81,46.47v-12.22h4.89v12.22h-4.89Z"/><path class="cls-1" d="M21.75,28.81c-.14.15-.78.48-1.94.48s-1.8-.34-1.94-.48c-.04-.39-.36-.69-.76-.69-.42,0-.76.34-.76.76,0,1.14,1.42,1.93,3.46,1.93s3.46-.79,3.46-1.93c0-.42-.34-.76-.76-.76-.4,0-.72.3-.76.69Z"/><path class="cls-1" d="M18.83,6.11c.42,0,.76-.34.76-.76V.76c0-.42-.34-.76-.76-.76s-.76.34-.76.76v4.58c0,.42.34.76.76.76Z"/><path class="cls-1" d="M12.09,7.2c.15.21.39.33.63.33.15,0,.3-.04.44-.14.35-.24.43-.72.19-1.06l-2.63-3.75c-.24-.35-.72-.43-1.06-.19-.35.24-.43.72-.19,1.06l2.63,3.75Z"/><path class="cls-1" d="M24.82,7.39c.13.09.29.14.44.14.24,0,.48-.11.63-.33l2.63-3.75c.24-.35.16-.82-.19-1.06-.35-.24-.82-.16-1.06.19l-2.63,3.75c-.24.35-.16.82.19,1.06Z"/><path class="cls-1" d="M28.45,11.89c.12.29.41.46.7.46.1,0,.2-.02.3-.06l4.21-1.8c.39-.17.57-.61.4-1-.17-.39-.61-.57-1-.4l-4.21,1.8c-.39.17-.57.61-.4,1Z"/><path class="cls-1" d="M4.92,10.49l4.21,1.8c.1.04.2.06.3.06.3,0,.58-.17.7-.46.17-.39-.01-.84-.4-1l-4.21-1.8c-.39-.17-.84.01-1,.4-.17.39.01.84.4,1Z"/></g></svg>