<?xml version="1.0" encoding="UTF-8"?><svg id="Layer_2" xmlns="http://www.w3.org/2000/svg" viewBox="0 0 47.66 48"><defs><style>.cls-1{fill:#39b54a;}</style></defs><g id="Layer_1-2"><path class="cls-1" d="M46.72,36.28l-.92-6.63s0-.02,0-.02c-.41-2.36-.87-4.48-1.31-5.97-.51-1.76-.98-2.79-1.78-2.77-.01,0-.02,0-.04,0-.02,0-.05,0-.07,0,0,0-.01,0-.02,0-.01,0-.03,0-.04,0-.25.05-.45.19-.6.44l-6.84,6.78c-.84.83-1.94,1.38-3.11,1.55l-.72.1h0s0,0,0,0l-6.87.98c-.88.13-1.66.59-2.19,1.3-.26.35-.45.74-.56,1.15l-.2.03c-.74.11-1.39.49-1.84,1.09-.45.6-.64,1.33-.53,2.07.11.74.49,1.39,1.09,1.84.49.37,1.07.56,1.67.56.13,0,.27,0,.4-.03l.17-.02c.22.39.52.73.89,1.01.71.53,1.59.76,2.47.63l2.52-.36,3.27,6.8s.01.02.02.04c.39.7,1.14,1.13,1.93,1.13.1,0,.2,0,.31-.02.69-.1,1.28-.5,1.62-1.11.33-.6.37-1.31.09-1.94l-1.62-4.36c-.14-.37-.55-.56-.92-.42-.37.14-.56.55-.42.92l1.62,4.38s.01.03.02.04c.1.22.09.47-.03.69-.12.21-.32.36-.57.39-.31.04-.62-.11-.77-.37l-3.06-6.37,3.58-.51c1.17-.17,2.38.05,3.41.61l8.47,4.59c.19.18.39.26.61.26.05,0,.09,0,.14-.01.02,0,.05-.01.07-.02,0,0,.01,0,.02,0,.76-.18.93-1.21.95-2.9.01-1.41-.1-3.32-.33-5.54,0,0,0-.02,0-.02ZM20.51,36.2c-.05-.36.04-.72.26-1.01.21-.27.5-.45.84-.52l.39,2.69c-.72.07-1.38-.44-1.48-1.16ZM25.59,38.97c-.5.07-1-.06-1.41-.36-.41-.3-.67-.75-.74-1.25l-.43-3.04c-.07-.5.06-1,.36-1.41.3-.41.75-.67,1.25-.74l6.16-.88.97,6.8-6.16.88ZM37.48,38.66c-1.3-.71-2.83-.98-4.3-.77h0s-.97-6.8-.97-6.8h0c1.47-.21,2.86-.9,3.91-1.95l5.45-5.4c0,.39,0,.81.02,1.3.07,2.18.35,5.04.78,8.07.43,3.02.97,5.85,1.52,7.96.12.47.24.88.35,1.25l-6.74-3.66ZM45.62,42c-.54-1.74-1.25-4.91-1.85-9.1-.6-4.19-.81-7.43-.78-9.25.38,1.24.88,3.27,1.39,6.21l.92,6.6c.26,2.56.34,4.38.32,5.54Z"/><path class="cls-1" d="M28.11,46.09c-1.13.21-2.28.33-3.43.37v-3.76c0-.4-.32-.72-.72-.72s-.72.32-.72.72v3.73c-2.55-.35-4.96-2.55-6.84-6.29-.43-.86-.82-1.77-1.18-2.74.52-.11,1.05-.21,1.59-.3.39-.07.65-.43.59-.82-.07-.39-.43-.65-.82-.59-.62.1-1.22.22-1.82.35-1.03-3.32-1.61-7.12-1.67-11.11h10.15v2.58c0,.4.32.72.72.72s.72-.32.72-.72v-2.58h10.88c.4,0,.72-.32.72-.72,0-3.15-.31-6.21-.93-9.1-.08-.39-.46-.63-.85-.55-.39.08-.63.46-.55.85.55,2.57.84,5.28.89,8.08h-10.15v-10.17c2.55-.04,5.05-.28,7.43-.73.39-.07.64-.45.57-.84-.07-.39-.45-.64-.84-.57-2.29.43-4.7.66-7.16.7V1.99c2.12.3,4.19,1.91,5.91,4.63.14.22.37.33.61.33.13,0,.26-.04.38-.11.33-.21.43-.65.22-.99-.87-1.37-1.83-2.5-2.86-3.36.45.1.9.22,1.35.35.38.11.78-.1.89-.48.11-.38-.1-.78-.48-.89-2.18-.64-4.44-.97-6.73-.97-2.4,0-4.77.36-7.05,1.07-.38.12-.59.52-.47.9.1.31.38.5.68.5.07,0,.14-.01.21-.03.53-.17,1.07-.31,1.62-.44-.92.78-1.8,1.79-2.6,3.01-.22.33-.13.77.2.99.33.22.77.13.99-.2,2.06-3.11,4.14-4.1,5.7-4.31v9.9c-2.38-.04-4.71-.26-6.93-.66-.39-.07-.76.19-.83.58-.07.39.19.76.58.83,2.31.42,4.72.65,7.18.68v10.17h-10.15c.04-2.83.35-5.57.9-8.16.08-.39-.16-.77-.55-.85-.39-.08-.77.16-.85.55-.58,2.69-.89,5.53-.94,8.47H1.7c.11-3.37.98-6.7,2.55-9.66.18-.35.05-.78-.3-.97-.35-.18-.78-.05-.97.3-1.78,3.38-2.73,7.2-2.73,11.04,0,6.33,2.47,12.28,6.94,16.76,4.48,4.48,10.43,6.94,16.76,6.94,1.48,0,2.97-.14,4.42-.41.39-.07.64-.45.57-.84-.07-.39-.45-.64-.84-.57ZM7.07,38.72c-3.32-3.86-5.2-8.68-5.36-13.8h9.96c.06,4.09.65,8.01,1.71,11.44-2.33.6-4.47,1.4-6.3,2.36ZM8.21,39.95s-.09-.09-.14-.14c1.69-.85,3.63-1.55,5.75-2.09.39,1.08.82,2.1,1.3,3.06,1.11,2.2,2.41,3.93,3.84,5.13-4.04-.92-7.75-2.96-10.75-5.96Z"/><path class="cls-1" d="M44.22,13.32c-.35.18-.5.61-.32.96,1.27,2.54,2.03,5.27,2.26,8.11.03.37.34.66.71.66.02,0,.04,0,.06,0,.39-.03.69-.38.66-.77-.24-3.02-1.05-5.93-2.4-8.63-.18-.35-.61-.5-.96-.32Z"/><path class="cls-1" d="M44.33,0h-8.51c-1.84,0-3.33,1.49-3.33,3.33v5.01c0,1.64,1.19,3.01,2.76,3.28v.99c0,.27.15.52.39.64.1.05.21.08.32.08.15,0,.3-.05.43-.14l2.05-1.52h5.89c1.84,0,3.33-1.49,3.33-3.33V3.33c0-1.84-1.49-3.33-3.33-3.33ZM46.23,8.34c0,1.05-.85,1.9-1.9,1.9h-6.12c-.15,0-.3.05-.43.14l-1.1.81v-.24c0-.4-.32-.72-.72-.72h-.15c-1.05,0-1.9-.85-1.9-1.9V3.33c0-1.05.85-1.9,1.9-1.9h8.51c1.05,0,1.9.85,1.9,1.9v5.01Z"/><path class="cls-1" d="M43.73,3.79h-7.28c-.4,0-.72.32-.72.72s.32.72.72.72h7.28c.4,0,.72-.32.72-.72s-.32-.72-.72-.72Z"/><path class="cls-1" d="M40.51,6.66h-4.05c-.4,0-.72.32-.72.72s.32.72.72.72h4.05c.4,0,.72-.32.72-.72s-.32-.72-.72-.72Z"/><path class="cls-1" d="M3.3,11.54h5.81l2.02,1.5c.13.09.28.14.43.14.11,0,.22-.03.32-.08.24-.12.39-.37.39-.64v-.97c1.55-.27,2.72-1.62,2.72-3.25V3.3c0-1.82-1.48-3.3-3.3-3.3H3.3C1.48,0,0,1.48,0,3.3v4.95c0,1.82,1.48,3.3,3.3,3.3ZM1.43,3.3c0-1.03.84-1.86,1.86-1.86h8.4c1.03,0,1.86.84,1.86,1.86v4.95c0,1.03-.84,1.86-1.86,1.86h-.14c-.4,0-.72.32-.72.72v.22l-1.07-.79c-.12-.09-.27-.14-.43-.14H3.3c-1.03,0-1.86-.84-1.86-1.86V3.3Z"/><path class="cls-1" d="M3.89,5.17h7.19c.4,0,.72-.32.72-.72s-.32-.72-.72-.72H3.89c-.4,0-.72.32-.72.72s.32.72.72.72Z"/><path class="cls-1" d="M3.89,8h4c.4,0,.72-.32.72-.72s-.32-.72-.72-.72h-4c-.4,0-.72.32-.72.72s.32.72.72.72Z"/></g></svg>