<?xml version="1.0" encoding="UTF-8"?><svg id="Layer_2" xmlns="http://www.w3.org/2000/svg" viewBox="0 0 48 41.35"><defs><style>.cls-1{fill:#39b54a;}</style></defs><g id="Layer_1-2"><path class="cls-1" d="M47.03,34.2c.42,0,.76-.34.76-.76s-.34-.76-.76-.76H1.52V.76c0-.42-.34-.76-.76-.76s-.76.34-.76.76v32.68c0,.42.34.76.76.76h46.27Z"/><path class="cls-1" d="M6.55,20.9c1.47,0,2.66-1.19,2.66-2.66,0-.31-.06-.61-.16-.89l7.54-5.5c.45.34,1,.55,1.61.55.76,0,1.45-.32,1.94-.84l7.1,3.56c-.03.15-.04.3-.04.46,0,1.47,1.19,2.66,2.66,2.66s2.66-1.19,2.66-2.66c0-.38-.08-.75-.23-1.07l8.01-6.82c.36.19.77.29,1.21.29,1.47,0,2.66-1.19,2.66-2.66s-1.19-2.66-2.66-2.66-2.66,1.19-2.66,2.66c0,.48.13.92.35,1.31l-7.89,6.72c-.42-.27-.91-.43-1.45-.43-.76,0-1.45.32-1.94.84l-7.1-3.56c.03-.15.04-.3.04-.46,0-1.47-1.19-2.66-2.66-2.66s-2.66,1.19-2.66,2.66c0,.31.06.61.16.89l-7.54,5.5c-.45-.34-1-.55-1.61-.55-1.47,0-2.66,1.19-2.66,2.66s1.19,2.66,2.66,2.66ZM41.52,4.18c.63,0,1.14.51,1.14,1.14s-.51,1.14-1.14,1.14-1.14-.51-1.14-1.14.51-1.14,1.14-1.14ZM29.86,14.44c.63,0,1.14.51,1.14,1.14s-.51,1.14-1.14,1.14-1.14-.51-1.14-1.14.51-1.14,1.14-1.14ZM18.21,8.6c.63,0,1.14.51,1.14,1.14s-.51,1.14-1.14,1.14-1.14-.51-1.14-1.14.51-1.14,1.14-1.14ZM6.55,17.1c.63,0,1.14.51,1.14,1.14s-.51,1.14-1.14,1.14-1.14-.51-1.14-1.14.51-1.14,1.14-1.14Z"/><path class="cls-1" d="M5.8,22.34v7.22c0,.42.34.76.76.76s.76-.34.76-.76v-7.22c0-.42-.34-.76-.76-.76s-.76.34-.76.76Z"/><path class="cls-1" d="M17.44,14.35v15.22c0,.42.34.76.76.76s.76-.34.76-.76v-15.22c0-.42-.34-.76-.76-.76s-.76.34-.76.76Z"/><path class="cls-1" d="M29.08,20.14v9.42c0,.42.34.76.76.76s.76-.34.76-.76v-9.42c0-.42-.34-.76-.76-.76s-.76.34-.76.76Z"/><path class="cls-1" d="M40.72,10.16v19.41c0,.42.34.76.76.76s.76-.34.76-.76V10.16c0-.42-.34-.76-.76-.76s-.76.34-.76.76Z"/><path class="cls-1" d="M36.84,13.47v16.1c0,.42.34.76.76.76s.76-.34.76-.76V13.47c0-.42-.34-.76-.76-.76s-.76.34-.76.76Z"/><path class="cls-1" d="M32.96,18.24v11.32c0,.42.34.76.76.76s.76-.34.76-.76v-11.32c0-.42-.34-.76-.76-.76s-.76.34-.76.76Z"/><path class="cls-1" d="M25.2,18.24v11.32c0,.42.34.76.76.76s.76-.34.76-.76v-11.32c0-.42-.34-.76-.76-.76s-.76.34-.76.76Z"/><path class="cls-1" d="M21.32,15.58v13.98c0,.42.34.76.76.76s.76-.34.76-.76v-13.98c0-.42-.34-.76-.76-.76s-.76.34-.76.76Z"/><path class="cls-1" d="M13.56,16.63v12.94c0,.42.34.76.76.76s.76-.34.76-.76v-12.94c0-.42-.34-.76-.76-.76s-.76.34-.76.76Z"/><path class="cls-1" d="M9.68,21.07v8.5c0,.42.34.76.76.76s.76-.34.76-.76v-8.5c0-.42-.34-.76-.76-.76s-.76.34-.76.76Z"/><path class="cls-1" d="M2.33,37.16c-1.15,0-2.09.94-2.09,2.09s.94,2.09,2.09,2.09,2.09-.94,2.09-2.09-.94-2.09-2.09-2.09ZM2.33,39.83c-.32,0-.58-.26-.58-.58s.26-.58.58-.58.58.26.58.58-.26.58-.58.58Z"/><path class="cls-1" d="M12.43,37.16h-6.2c-.42,0-.76.34-.76.76s.34.76.76.76h6.2c.42,0,.76-.34.76-.76s-.34-.76-.76-.76Z"/><path class="cls-1" d="M19.74,37.16c-1.15,0-2.09.94-2.09,2.09s.94,2.09,2.09,2.09,2.09-.94,2.09-2.09-.94-2.09-2.09-2.09ZM19.74,39.83c-.32,0-.58-.26-.58-.58s.26-.58.58-.58.58.26.58.58-.26.58-.58.58Z"/><path class="cls-1" d="M29.84,37.16h-6.2c-.42,0-.76.34-.76.76s.34.76.76.76h6.2c.42,0,.76-.34.76-.76s-.34-.76-.76-.76Z"/><path class="cls-1" d="M37.14,37.16c-1.15,0-2.09.94-2.09,2.09s.94,2.09,2.09,2.09,2.09-.94,2.09-2.09-.94-2.09-2.09-2.09ZM37.14,39.83c-.32,0-.58-.26-.58-.58s.26-.58.58-.58.58.26.58.58-.26.58-.58.58Z"/><path class="cls-1" d="M47.24,37.16h-6.2c-.42,0-.76.34-.76.76s.34.76.76.76h6.2c.42,0,.76-.34.76-.76s-.34-.76-.76-.76Z"/><path class="cls-1" d="M8.55,39.83h-2.32c-.42,0-.76.34-.76.76s.34.76.76.76h2.32c.42,0,.76-.34.76-.76s-.34-.76-.76-.76Z"/><path class="cls-1" d="M25.96,39.83h-2.32c-.42,0-.76.34-.76.76s.34.76.76.76h2.32c.42,0,.76-.34.76-.76s-.34-.76-.76-.76Z"/><path class="cls-1" d="M43.36,39.83h-2.32c-.42,0-.76.34-.76.76s.34.76.76.76h2.32c.42,0,.76-.34.76-.76s-.34-.76-.76-.76Z"/></g></svg>