<?xml version="1.0" encoding="UTF-8"?><svg id="Layer_2" xmlns="http://www.w3.org/2000/svg" viewBox="0 0 47.15 48"><defs><style>.cls-1{fill:#39b54a;}</style></defs><g id="Layer_1-2"><path class="cls-1" d="M21.44,27.18c-.41,0-.73.33-.73.73v8.28H1.47V9.17h19.23v11.52c0,.41.33.73.73.73s.73-.33.73-.73v-12.69c0-2.05-1.67-3.72-3.72-3.72H3.72c-2.05,0-3.72,1.67-3.72,3.72v32.12c0,2.05,1.67,3.72,3.72,3.72h14.73c2.05,0,3.72-1.67,3.72-3.72v-12.2c0-.41-.33-.73-.73-.73ZM3.72,5.75h14.73c1.14,0,2.08.85,2.23,1.95H1.49c.15-1.1,1.09-1.95,2.23-1.95ZM18.45,42.38H3.72c-1.24,0-2.25-1.01-2.25-2.25v-2.46h19.23v2.46c0,1.24-1.01,2.25-2.25,2.25Z"/><path class="cls-1" d="M11.9,39h-1.63c-.41,0-.73.33-.73.73s.33.73.73.73h1.63c.41,0,.73-.33.73-.73s-.33-.73-.73-.73Z"/><path class="cls-1" d="M17.92,21.4c-.09-.27-.32-.46-.59-.5l-3.86-.56-1.72-3.49c-.12-.25-.38-.41-.66-.41s-.53.16-.66.41l-1.72,3.49-3.86.56c-.28.04-.51.23-.59.5-.09.27-.01.56.19.75l2.79,2.72-.66,3.84c-.05.28.07.55.29.72.23.16.53.19.77.06l3.45-1.81,3.45,1.81c.11.06.22.08.34.08.15,0,.3-.05.43-.14.23-.16.34-.44.29-.72l-.66-3.84,2.79-2.72c.2-.2.27-.49.19-.75ZM13.64,24.09c-.17.17-.25.41-.21.65l.47,2.75-2.47-1.3c-.11-.06-.22-.08-.34-.08s-.23.03-.34.08l-2.47,1.3.47-2.75c.04-.24-.04-.48-.21-.65l-2-1.95,2.77-.4c.24-.03.45-.18.55-.4l1.24-2.51,1.24,2.51c.11.22.31.37.55.4l2.77.4-2,1.95Z"/><path class="cls-1" d="M43.44,0h-15.2c-2.05,0-3.71,1.67-3.71,3.71v17.18l-4.12,2.76c-.2.13-.32.36-.33.6,0,.24.11.47.3.61l4.14,3.02v16.41c0,2.05,1.67,3.71,3.71,3.71h15.2c2.05,0,3.71-1.67,3.71-3.71V3.71c0-2.05-1.67-3.71-3.71-3.71ZM45.68,44.29c0,1.24-1.01,2.25-2.25,2.25h-15.2c-1.24,0-2.25-1.01-2.25-2.25v-16.78c0-.23-.11-.45-.3-.59l-3.6-2.63,3.57-2.39c.2-.14.33-.37.33-.61V3.71c0-1.24,1.01-2.25,2.25-2.25h15.2c1.24,0,2.25,1.01,2.25,2.25v40.57Z"/><path class="cls-1" d="M35.11,9.67c-.29-.29-.75-.29-1.04,0-.29.29-.29.75,0,1.04l1.13,1.13c.14.14.33.22.52.22s.36-.07.51-.2l4.38-4.18c.29-.28.3-.74.02-1.04-.28-.29-.74-.3-1.04-.02l-3.86,3.69-.62-.62Z"/><path class="cls-1" d="M40.13,9.45c-.41,0-.73.33-.73.73,0,1.91-1.56,3.47-3.47,3.47s-3.47-1.56-3.47-3.47,1.56-3.47,3.47-3.47c.44,0,.86.08,1.26.24.38.15.8-.04.95-.42.15-.38-.04-.8-.42-.95-.57-.22-1.18-.34-1.8-.34-2.72,0-4.94,2.22-4.94,4.94s2.22,4.94,4.94,4.94,4.94-2.22,4.94-4.94c0-.41-.33-.73-.73-.73Z"/><path class="cls-1" d="M35.11,23.61c-.29-.29-.75-.29-1.04,0-.29.29-.29.75,0,1.04l1.13,1.13c.14.14.33.22.52.22s.36-.07.51-.2l4.38-4.18c.29-.28.3-.74.02-1.04-.28-.29-.74-.3-1.04-.02l-3.86,3.69-.62-.62Z"/><path class="cls-1" d="M40.13,23.4c-.41,0-.73.33-.73.73,0,1.91-1.56,3.47-3.47,3.47s-3.47-1.56-3.47-3.47,1.56-3.47,3.47-3.47c.44,0,.86.08,1.26.24.38.15.8-.04.95-.42.15-.38-.04-.8-.42-.95-.57-.22-1.18-.34-1.8-.34-2.72,0-4.94,2.22-4.94,4.94s2.22,4.94,4.94,4.94,4.94-2.22,4.94-4.94c0-.41-.33-.73-.73-.73Z"/><path class="cls-1" d="M35.11,37.55c-.29-.29-.75-.29-1.04,0-.29.29-.29.75,0,1.04l1.13,1.13c.14.14.33.21.52.21s.36-.07.51-.2l4.38-4.18c.29-.28.3-.74.02-1.04-.28-.29-.74-.3-1.04-.02l-3.86,3.69-.62-.62Z"/><path class="cls-1" d="M40.13,37.34c-.41,0-.73.33-.73.73,0,1.91-1.56,3.47-3.47,3.47s-3.47-1.56-3.47-3.47,1.56-3.47,3.47-3.47c.44,0,.86.08,1.26.24.38.15.8-.04.95-.42.15-.38-.04-.8-.42-.95-.57-.22-1.18-.34-1.8-.34-2.72,0-4.94,2.22-4.94,4.94s2.22,4.94,4.94,4.94,4.94-2.22,4.94-4.94c0-.41-.33-.73-.73-.73Z"/></g></svg>