<?xml version="1.0" encoding="UTF-8"?><svg id="Layer_2" xmlns="http://www.w3.org/2000/svg" viewBox="0 0 48 47.85"><defs><style>.cls-1{fill:#39b54a;}</style></defs><g id="Layer_1-2"><path class="cls-1" d="M44.24,0H3.78C1.71,0,.02,1.69.02,3.76v28.83c-.01.05-.02.11-.02.16s0,.11.02.16v2.18c0,2.07,1.69,3.76,3.76,3.76h15.38v2.82c0,2.58-2.1,4.67-4.67,4.67h-3.7c-.42,0-.75.34-.75.75s.34.75.75.75h26.58c.42,0,.75-.34.75-.75s-.34-.75-.75-.75h-3.53c-2.58,0-4.67-2.1-4.67-4.67v-2.82h15.07c2.07,0,3.76-1.69,3.76-3.76V3.76c0-2.07-1.69-3.76-3.76-3.76ZM3.78,1.5h40.46c1.24,0,2.26,1.01,2.26,2.26v28.24H1.52V3.76c0-1.24,1.01-2.26,2.26-2.26ZM29.8,46.35h-11.28c1.31-1.13,2.14-2.81,2.14-4.67v-2.82h7v2.82c0,1.86.83,3.54,2.14,4.67ZM44.24,37.35H3.78c-1.24,0-2.26-1.01-2.26-2.26v-1.59h44.97v1.59c0,1.24-1.01,2.26-2.26,2.26Z"/><path class="cls-1" d="M33.8,11.19c-.16.17-.24.42-.19.65l1.36,7.37c.05.28.26.5.53.59.27.08.57,0,.76-.21l1.56-1.65,3.27,3.03c.14.13.33.2.51.2.2,0,.4-.08.55-.24l1.96-2.09c.14-.15.21-.34.2-.54,0-.2-.09-.39-.24-.53l-3.26-3.03,1.53-1.62c.19-.21.26-.5.16-.77-.1-.27-.33-.46-.62-.49l-7.44-.91c-.24-.03-.48.06-.64.23ZM40.22,13.18l-1.03,1.09c-.14.15-.21.34-.2.54,0,.2.09.39.24.53l3.26,3.03-.93.99-3.27-3.03c-.14-.13-.33-.2-.51-.2-.2,0-.4.08-.55.24l-1.05,1.12-.91-4.9,4.95.61Z"/><path class="cls-1" d="M11.92,11.12h4.66c.42,0,.75-.34.75-.75v-.75c0-.42-.34-.75-.75-.75s-.75.34-.75.75h-3.16v-3.16h1.32c.42,0,.75-.34.75-.75s-.34-.75-.75-.75h-2.07c-.42,0-.75.34-.75.75v4.66c0,.42.34.75.75.75Z"/><path class="cls-1" d="M14.61,7.29c-.32-.27-.79-.22-1.06.1-.27.32-.22.79.1,1.06l.61.51c.14.12.31.17.48.17.19,0,.39-.07.53-.22l3.2-3.2c.29-.29.29-.77,0-1.06s-.77-.29-1.06,0l-2.72,2.72-.08-.07Z"/><path class="cls-1" d="M21.62,6.52h13.94c.42,0,.75-.34.75-.75s-.34-.75-.75-.75h-13.94c-.42,0-.75.34-.75.75s.34.75.75.75Z"/><path class="cls-1" d="M21.62,9.83h9.73c.42,0,.75-.34.75-.75s-.34-.75-.75-.75h-9.73c-.42,0-.75.34-.75.75s.34.75.75.75Z"/><path class="cls-1" d="M11.92,28.99h4.66c.42,0,.75-.34.75-.75v-4.66c0-.42-.34-.75-.75-.75h-4.66c-.42,0-.75.34-.75.75v4.66c0,.42.34.75.75.75ZM12.67,24.33h3.16v3.16h-3.16v-3.16Z"/><path class="cls-1" d="M21.62,24.48h13.94c.42,0,.75-.34.75-.75s-.34-.75-.75-.75h-13.94c-.42,0-.75.34-.75.75s.34.75.75.75Z"/><path class="cls-1" d="M21.62,27.79h9.73c.42,0,.75-.34.75-.75s-.34-.75-.75-.75h-9.73c-.42,0-.75.34-.75.75s.34.75.75.75Z"/><path class="cls-1" d="M11.92,20.07h4.66c.42,0,.75-.34.75-.75v-4.66c0-.42-.34-.75-.75-.75h-4.66c-.42,0-.75.34-.75.75v4.66c0,.42.34.75.75.75ZM12.67,15.41h3.16v3.16h-3.16v-3.16Z"/><path class="cls-1" d="M21.62,15.55h9.73c.42,0,.75-.34.75-.75s-.34-.75-.75-.75h-9.73c-.42,0-.75.34-.75.75s.34.75.75.75Z"/><path class="cls-1" d="M21.62,18.86h9.73c.42,0,.75-.34.75-.75s-.34-.75-.75-.75h-9.73c-.42,0-.75.34-.75.75s.34.75.75.75Z"/></g></svg>